<svg xmlns="http://www.w3.org/2000/svg" width="71" height="76" viewBox="0 0 71 76">
    <g fill="#000" fill-rule="evenodd">
        <path d="M70.434 22.62l.059-.41-.06.058c-.295-.235-.649-.47-1.003-.705a8.704 8.704 0 0 0-1.298-.588l-3.245-1.352c.708-.647 1.18-1.411 1.357-2.234.177-1-.118-1.999-.354-2.94-.118-.47-.295-.999-.354-1.528-.177-1.293.118-2.704.413-4.056.413-1.881.826-3.88-.118-5.585-.826-1.47-2.656-2.47-4.662-2.528-1.947-.059-3.777.706-5.193 1.352-4.19 1.999-7.789 4.938-10.621 8.583l-.06-.059c-3.186-1.058-6.254-2.41-9.264-3.939-.354-.176-.767-.411-1.298-.352-.295 0-.531.117-.708.176l-5.606 2.116c-2.538-2.704-5.547-4.938-8.852-6.525-1.357-.647-3.245-1.41-5.193-1.352C12.368.81 10.54 1.81 9.713 3.28c-.944 1.705-.531 3.703-.118 5.585.295 1.352.59 2.763.413 4.056-.06.529-.236 1-.354 1.528-.295.94-.59 1.94-.354 2.94.059.235.118.47.236.705a58.42 58.42 0 0 0-8.32 3.645c-.119.059-.178.235-.119.353.06.058.118.117.236.117.06 0 .06 0 .118-.059 2.656-1.47 5.429-2.645 8.32-3.644.532.94 1.535 1.704 2.951 2.41a17.786 17.786 0 0 0 7.612 1.705c1.003 0 2.007-.06 2.95-.236.119 0 .237-.058.414-.058l-11.094 5.82c-.118.058-.177.235-.118.352.059.06.118.118.236.118h.118l12.805-6.702c.413-.117.885-.235 1.298-.353 2.065-.587 4.13-1.175 6.196-1.058v-.235c.059.118.118.177.177.294.944 1.529 3.363 2.352 5.252 2.352.649 0 1.18-.06 1.652-.236 1.003-.352 1.888-1.175 2.42-2.233v.058c.884-.058 1.829 0 2.714.177l-14.635 8.23c-2.714 1.529-5.487 3.116-7.788 5.232-.118.118-.118.235 0 .353-7.79-4.115-15.107-8.23-21.893-12.11l-.354-.235v.411c-.236 6.173-.118 12.228 0 18.577.06 4.35.177 8.818.118 13.58v.118l.118.058c4.78 3.528 9.5 6.585 14.811 9.582l12.57 7.172L35.854 76l1.121-.646c10.562-5.879 22.483-12.58 33.281-20.517l.118-.059v-.117c0-3.704-.118-7.349-.177-10.876-.177-7.113-.354-13.874.236-21.163zM40.28 14.039c.236-.176.472-.294.649-.47l1.77-1.058 1.888-1.117c-.944 1.293-1.77 2.704-2.537 4.115-.413-.588-1.062-1.176-1.77-1.47zm-6.255-7.054c.177-.06.413-.177.59-.177.354 0 .708.177 1.003.353a69.236 69.236 0 0 0 8.852 3.821l-2.007 1.176-1.77 1.058c-.236.176-.531.353-.767.53-.06.058-.118.117-.118.176a4.618 4.618 0 0 0-1.298-.177c-1.299-.059-2.597.235-3.541.882a5.207 5.207 0 0 0-1.534 1.646 31.062 31.062 0 0 0-4.78-7.172l5.37-2.116zm-1.299 12.933c-2.065-.059-4.19.47-6.254 1.058-.296.06-.59.177-.945.236-.059 0-.118-.06-.236 0l-.177.117c-.708.176-1.475.353-2.242.47-3.482.588-7.081.118-10.268-1.41-1.83-.882-2.891-1.94-3.127-3.175-.177-.882.059-1.764.354-2.704.177-.53.295-1.058.413-1.588.177-1.41-.118-2.821-.413-4.232-.413-1.881-.767-3.704.059-5.232.708-1.352 2.42-2.234 4.248-2.293 1.83-.059 3.6.705 4.957 1.293 6.137 2.999 11.212 8.172 14.045 14.285h.059c-.532 1-.827 2.175-.473 3.175zm6.964 2.234c-.413.118-.945.235-1.476.235-1.71 0-4.012-.764-4.838-2.116-1.003-1.646.413-4.291 1.829-5.232.826-.53 1.83-.823 2.95-.823h.295c.65 0 1.122.118 1.594.294.885.353 1.652 1.176 2.006 2.116.354.94.354 1.999 0 2.998-.413 1.176-1.298 2.117-2.36 2.528zm2.832-2.234c0-.059.06-.117.06-.117.353-1.117.353-2.293 0-3.292-.06-.177-.178-.353-.237-.588l.177.059c2.891-5.88 7.73-10.641 13.572-13.404 1.358-.646 3.128-1.352 4.957-1.293 1.83.059 3.482.94 4.249 2.293.885 1.587.472 3.35.059 5.232-.295 1.41-.59 2.822-.413 4.233.059.529.236 1.058.413 1.587.295.94.53 1.822.354 2.704-.177.823-.65 1.528-1.475 2.175h-.06c-.412.353-.943.647-1.593.94-3.186 1.53-6.786 2-10.267 1.412-1.18-.177-2.36-.53-3.541-.882-2.065-.588-4.19-1.117-6.255-1.058zm6.078 1.529c1.18.352 2.42.646 3.6.882 1.003.176 1.947.235 2.95.235 2.596 0 5.252-.588 7.612-1.705.59-.294 1.121-.588 1.593-.94l3.482 1.469c.413.176.826.353 1.24.588.294.117.53.294.766.529-3.835 1.646-7.612 3.292-11.212 5.056h-.059c-1.416-.236-2.714-.882-3.953-1.529l-7.849-4.115c-.472-.235-1.003-.529-1.416-.882l.413-.235c.944.118 1.888.412 2.832.647h.001zm20.948 13.227c-.059 0-.118 0-.177.058-3.305 1.94-6.609 3.822-10.031 5.644l-.413-12.462c3.54-1.705 7.14-3.351 10.916-4.939-.236 3.998-.354 7.878-.295 11.7v-.001zM48.954 53.309c-.119-2.293-.296-4.645-.355-6.996a241.594 241.594 0 0 0 10.327-5.173l.65 20.398a323.525 323.525 0 0 1-10.327 6.29c.236-4.82-.06-9.758-.295-14.52zm-.355-7.525c-.118-4.292 0-8.583.709-12.816.059-.058.059-.117.059-.176 2.95-1.587 5.96-3.175 9.087-4.644l.413 12.462c-3.364 1.823-6.845 3.528-10.268 5.174zM22.99 35.32v-.059c3.541 1.94 7.082 3.821 10.622 5.761.295.177.708.353 1.18.353.118 0 .236 0 .354-.059l.295 9.818-.354-.177-6.55-3.233c-2.065-1.058-4.19-2.116-6.314-3.233.236-3.057.472-6.173.767-9.172zm-1.239 8.877c-.649-.353-1.239-.706-1.888-1.058-2.124-1.294-4.19-2.705-6.196-4.057a13.731 13.731 0 0 0-1.534-.999l.177-8.76c3.423 1.882 6.845 3.822 10.386 5.703l-.177.176c-.295 2.998-.531 5.996-.767 8.994zm13.867-3.057H35.5c.236-.118.413-.235.59-.353 3.954-2.645 8.202-5.173 12.688-7.642-.709 4.233-.827 8.583-.709 12.874-3.717 1.764-7.553 3.469-11.388 4.997a1.638 1.638 0 0 1-.767.176h-.06l-.236-10.052zm9.324-19.811c.531.411 1.062.705 1.652.999l7.849 4.115c1.121.588 2.242 1.176 3.481 1.47a211.494 211.494 0 0 0-8.97 4.644c-.825-.235-1.533-.764-2.241-1.41-.414-.354-.827-.706-1.299-1-.885-.53-1.829-.823-2.773-1.117a12.951 12.951 0 0 1-1.947-.706c-.532-.235-1.004-.529-1.476-.823-.944-.588-1.947-1.175-3.068-1.293l8.793-4.88c-.06-.058-.06-.058 0 0h-.001zM22.753 34.497c.06 0 .119 0 .178-.059 2.3-2.116 5.074-3.645 7.73-5.173l4.72-2.645h.06c1.238-.06 2.36.587 3.48 1.293.473.294 1.004.588 1.535.823.65.294 1.357.529 2.006.705.944.294 1.83.588 2.656 1.117.413.294.826.588 1.239.941.59.53 1.239 1 1.947 1.352-4.426 2.47-8.615 4.997-12.51 7.584-.295.176-.649.411-1.003.411-.295 0-.649-.176-.885-.294-3.776-1.999-7.494-4.056-11.153-6.055-.059 0-.059 0 0 0zM1.156 22.975c3.481 1.999 7.022 3.998 10.68 6.055l-.176 8.7c-.826-.588-1.711-1.117-2.597-1.704a82.072 82.072 0 0 0-8.025-4.468c0-2.88 0-5.703.118-8.583zm.059 18.166c-.06-3.057-.118-6.055-.118-9.053a76.52 76.52 0 0 1 7.73 4.35 78.678 78.678 0 0 1 2.832 1.881l-.413 22.927a161.591 161.591 0 0 1-9.913-6.643c0-4.703-.06-9.171-.118-13.462zm10.503 20.398l.413-22.927c.414.294.827.588 1.24.823 2.006 1.352 4.13 2.822 6.255 4.057.708.411 1.357.823 2.065 1.175-.531 7.408-.708 14.815-.65 22.222l-5.074-2.88a79.218 79.218 0 0 1-4.249-2.47zm9.855 5.703l.118-.647a.448.448 0 0 0-.118-.294c-.059-7.054.177-14.167.65-21.28 2.005 1.116 4.07 2.116 6.136 3.115l6.55 3.233c.177.06.354.177.59.236l.65 23.397c0 .059.058.176.058.235l-.295.177-14.339-8.172zm15.224 7.642c0-.059-.059-.118-.118-.176-.059 0-.059-.06-.118-.06l-.649-22.926c.354 0 .65-.118.944-.236a209.451 209.451 0 0 0 11.212-4.938c.06 2.293.236 4.527.354 6.76.295 4.88.59 9.877.295 14.816-4.071 2.41-8.084 4.644-11.92 6.76zm23.25-13.639l-.65-20.34a282.268 282.268 0 0 0 10.15-5.702c0 1.999.06 4.056.119 6.055-.177-.059-.354-.059-.472.059-.177.117-.296.352-.237.529l.473-.118.059-.059.236-.294c0 .765.059 1.588.059 2.352.059 1.705.118 3.468.118 5.232l-.177-.412-.295.177.236.47.295-.117c.059 1.763.059 3.586.059 5.408a175.134 175.134 0 0 1-9.973 6.76z"/>
        <path d="M54.147 19.035c.767.06 1.476.118 2.184.118 2.596 0 4.661-.53 6.314-1.587.53-.353 1.652-1.235 1.416-2.41-.118-.706-.767-1.294-1.888-1.764-1.83-.706-3.954-.94-6.196-.764-1.83.176-3.777.646-6.078 1.41-.65.236-1.476.53-2.302.941-1.475.705-2.832 1.705-4.012 2.88l-.354.412 2.36.118c.413-.06.885-.06 1.357-.06 1.534 0 3.128.177 4.662.412.885.118 1.711.236 2.537.294zm-4.366-2.527c-.06 0-.118.058-.118.117a8.384 8.384 0 0 0-1.18.235l2.006-.764-.708.412zm.118.705h-.06c-.176 0-.412 0-.59.059-.058 0-.117 0-.176.059h-.354c.354-.118.708-.177 1.12-.236h.06c-.06 0-.06.06 0 .118-.06-.059-.06 0 0 0zm-.885-1.058c.295-.118.59-.294.885-.412.118-.058.177-.176.118-.352 0-.06-.06-.06-.06-.118l.532-.294c.118-.059.177-.235.118-.353.649-.294 1.298-.529 2.006-.646l-1.534.94c-.118.06-.118.177-.118.294v.059l-.177.059c-.06 0-.118.117-.177.176l-1.593.647zm2.537.588c.472-.118.885-.235 1.298-.353v.118a.325.325 0 0 0 .295.176c.59-.059 1.062-.353 1.534-.647.118-.059.177-.117.295-.176.178-.118.355-.176.59-.294.237-.059.473-.176.768-.294h.059c-.65.47-1.299.882-1.948 1.235-.236.117-.53.293-.767.411-.354.059-.708.118-1.062.235v-.117c0-.118-.118-.177-.236-.177h-.059c-.531.118-1.121.177-1.652.235l.885-.352zm2.478-2.058l.59-.353c0 .06-.059.118-.059.118-.177.059-.295.118-.472.176 0 .06 0 .06-.059.06zm1.121-.823c.65-.176 1.299-.235 2.007-.235a9.276 9.276 0 0 0-1.652.353l-.532.176.06-.059c.117 0 .176-.117.117-.235zm3.954.764c.236-.059.472-.117.65-.176l.53.353-.354.176c-.177.059-.295.118-.472.176-.059-.058-.118-.058-.177-.058h-.059c-.059 0-.059 0-.118.058.06-.058.06-.117.06-.235.058-.059 0-.176-.06-.294zm1.062.823c.295-.117.65-.294.944-.352-.236.235-.53.411-.885.646l-1.475.94c0-.058.06-.117 0-.175-.059-.118-.118-.177-.236-.177h-.059l-.236.059c.177-.118.354-.235.472-.294a16.071 16.071 0 0 0 1.475-.647zm.472-.999l.531.176c-.118 0-.177.06-.295.06 0-.06-.059-.118-.059-.118a.73.73 0 0 1-.177-.118zm-3.01 3.292c0 .059.06.059.06.059-.885.117-1.711.176-2.478.059 1.062-.294 2.183-.588 3.245-.941l-.767.47c-.06.06-.118.235-.06.353zm1.063-.353c.059.118.236.118.354.06.177-.06.295-.177.472-.236-.059.059-.118.059-.118.118-.059.058-.059.058-.059.117-.413.118-.767.235-1.18.294.118-.118.354-.235.531-.353zm-1.121-1.587c-.65.294-1.298.647-1.889 1-.236 0-.53 0-.767.058.65-.353 1.299-.705 2.007-1.058.53-.235 1.003-.47 1.593-.647-.354.236-.65.412-.944.647zm-.118-1.41c-.354.058-.65.058-1.003.117-.06-.059-.118-.118-.236-.118h-.06a6.113 6.113 0 0 1 1.77-.235h.414c-.295 0-.59.118-.885.235zm-4.249 3.468c-.059 0-.118 0-.177.058-.531.118-1.18.236-1.77.236.295-.118.59-.177.826-.294.295 0 .59 0 .885-.06.06 0 .118 0 .236.06-.059-.06 0-.06 0 0zm2.833-4.703c2.183-.177 4.248.058 6.019.705.944.353 1.416.823 1.534 1.352.177.94-.885 1.705-1.24 1.94-1.593 1-3.54 1.529-6.077 1.529-.65 0-1.358-.06-2.125-.118l-1.416-.176c.118 0 .177-.06.295-.06.295-.058.65-.117.944-.175 1.18.352 2.538.352 3.954.117.708-.117 1.416-.353 2.124-.588a4.178 4.178 0 0 0 1.475-.646c.236-.118.531-.236.827-.412.118-.059.177-.176.118-.294 0 0 0-.059-.06-.059l.06-.058c.059-.06.059-.118.059-.236.059-.058.118-.117.177-.117h.059a.325.325 0 0 0 .295-.177v-.058c.059-.06.059-.118.059-.235 0-.06 0-.06-.06-.06-.117-.352-.412-.646-.943-.94-1.476-.705-2.95-1.117-4.426-1.234-1.652-.118-3.187.176-4.485.881-.059 0-.059.06-.118.06.06-.06.06-.118.06-.236 0-.059-.06-.176-.06-.235 1.062-.235 2.065-.412 2.95-.47zm5.664 1.998c.06-.058.06-.117.118-.235.06.059.118.059.177.118-.059.059-.177.059-.295.117zm-16.109 2.763l-1.24-.058c1.004-1 2.184-1.764 3.482-2.41.236-.118.531-.236.767-.353-.118.058-.295.176-.413.235-.885.529-1.77 1.058-2.596 1.646-.118.059-.177.235-.059.353.059.058.118.117.236.117-.118.059-.118.235-.059.294.059.118.177.176.295.118l1.888-.765c-.059 0-.059.06-.118.06-.059.058-.118.117-.118.234 0 .06.06.177.118.235.413.236.886.236 1.358.177.118 0 .236 0 .354-.059.413 0 .826.059 1.18.059-.118.059-.177.176-.236.294-1.121-.118-2.243-.235-3.364-.235-.59 0-1.062.058-1.475.058zM27.593 14.979c-.827-.412-1.653-.706-2.302-.94-2.301-.824-4.248-1.235-6.078-1.412-2.242-.176-4.366.06-6.196.765-1.12.411-1.711.999-1.888 1.763-.236 1.176.944 2.116 1.416 2.41 1.652 1.059 3.718 1.588 6.314 1.588.708 0 1.357-.06 2.184-.118a37.263 37.263 0 0 0 2.537-.294c1.534-.176 3.127-.411 4.662-.411.472 0 .944 0 1.416.058l2.36-.117-.354-.412a17.645 17.645 0 0 0-4.071-2.88zm-2.066 1.646c0-.059-.059-.118-.118-.118l-.708-.411 2.006.764c-.413-.118-.826-.176-1.18-.235zm1.003.705h-.354c-.059-.059-.118-.059-.177-.059-.177 0-.413 0-.59-.058h-.059v-.118h.06c.353.059.766.118 1.12.235zm-1.947-1.822c0-.059-.059-.118-.177-.177l-.118-.058v-.06c.059-.117 0-.234-.118-.293l-1.475-.94a6.895 6.895 0 0 1 1.947.646c-.059.118 0 .294.118.353l.531.294c-.059 0-.059.058-.059.117-.059.118 0 .294.118.353.295.118.59.235.885.411l-1.652-.646zm-2.42 2.351c-.058 0-.117 0-.176-.058h.177c.295 0 .59.058.885.058.295.06.59.177.826.294-.531-.059-1.121-.176-1.711-.294zm.768-.999a.325.325 0 0 0-.295.176v.118c-.354-.059-.708-.176-1.062-.235-.236-.177-.531-.294-.767-.412l-1.948-1.234h.06c.235.117.471.176.766.294.177.117.354.176.59.294.118.058.177.117.295.176.473.294 1.004.588 1.535.647a.325.325 0 0 0 .295-.177v-.117c.413.117.826.235 1.239.294h.059l.885.352c-.59 0-1.121-.058-1.652-.176zm-5.429.529l-.767-.47c1.062.352 2.124.705 3.245.94-.767.118-1.652.06-2.478-.058.059 0 .059-.06.059-.06.059-.117.059-.293-.059-.352zm-2.478-1.94c.472.235.944.412 1.416.706.177.117.354.235.472.293l-.236-.058c-.118-.06-.236.058-.295.176v.176l-1.475-.94c-.354-.235-.65-.412-.886-.647.414.059.709.177 1.004.294zm-.945-.823l.532-.176c-.06.058-.118.058-.178.117-.059.059-.059.059-.059.118-.118-.059-.236-.059-.295-.059zm2.007.53c-.06 0-.06 0-.118-.06-.118-.058-.177 0-.236.06-.177-.06-.295-.118-.472-.177-.118-.059-.236-.118-.413-.118l.53-.353c.237.06.414.118.65.177a.448.448 0 0 0-.118.294l.177.176zm.118 2.292c.118.059.236.059.354-.059.177.118.413.235.59.353-.354-.059-.767-.177-1.18-.294 0-.059-.06-.118-.06-.118-.058-.059-.117-.059-.117-.117.059.058.236.176.413.235zm3.363-.647a19.13 19.13 0 0 0-1.888-1c-.295-.176-.59-.41-.885-.646.53.118 1.062.412 1.593.647.65.353 1.357.705 2.006 1.058-.354-.059-.59-.059-.826-.059zm.59-2.645l.06.059-.532-.177a9.275 9.275 0 0 0-1.652-.353c.708 0 1.357.06 2.006.236-.059.058 0 .176.118.235zm-1.12.176a.452.452 0 0 0-.296.118c-.354-.06-.649-.06-1.003-.118-.295-.117-.59-.176-.885-.294h.413c.649.059 1.24.118 1.77.294zm1.533 0l.59.353h-.118c-.177-.059-.295-.118-.472-.177.06-.058 0-.117 0-.176zm.413 4.233c-.767.059-1.475.117-2.124.117-2.537 0-4.485-.47-6.078-1.528-.354-.235-1.416-1-1.24-1.94.119-.53.65-1 1.535-1.352 1.357-.53 2.892-.764 4.544-.764.472 0 .944 0 1.475.058.944.06 1.888.236 2.891.47-.059.06-.059.118-.059.236 0 .059 0 .176.06.235-.06 0-.06-.059-.119-.059-1.298-.705-2.891-1-4.484-.882-1.416.118-2.95.53-4.426 1.235-.531.235-.826.588-.944.94l-.06.06c0 .058 0 .176.06.234v.06c0 .117.118.176.295.176h.059c.059.058.118.117.177.117 0 .059 0 .177.059.235l.059.06s0 .058-.059.058c-.059.117 0 .235.118.294.295.117.531.294.826.411.472.294.944.53 1.475.647.767.294 1.476.47 2.125.588 1.416.294 2.773.235 3.953-.118.295.06.65.118.945.177.118 0 .177.058.295.058-.414.06-.886.118-1.358.177zm-7.494-3.41c-.118-.059-.236-.117-.295-.117.06-.06.118-.06.177-.118.06.118.06.176.118.235zm16.169 2.763c-.472-.059-.945-.059-1.417-.059-1.12 0-2.242.118-3.363.236-.06-.118-.118-.236-.236-.294.413 0 .826-.06 1.18-.06.118 0 .236 0 .354.06.472.058.944.058 1.357-.177.06-.059.118-.117.118-.235a.445.445 0 0 0-.118-.235c-.059 0-.059-.059-.118-.059l1.889.764c.118.06.236 0 .295-.117.059-.118 0-.235-.06-.294.119 0 .178-.059.237-.118.059-.117.059-.294-.06-.352-.826-.53-1.71-1.117-2.596-1.646-.118-.06-.295-.177-.413-.236.236.118.531.236.767.353 1.299.647 2.42 1.411 3.482 2.41l-1.298.06zM2.803 35.072l.168.168-.333.332-.168-.168zM4.783 36.228l.215-.42.316.158-.216.42zM3.399 40.316h.177v-.47h-.177zM5.228 44.255h.177v-.47h-.177zM6.172 43.02h.473v-.176h-.473zM6.645 40.904h.472v-.176h-.472zM6.32 38.088l.457.12-.165.627-.457-.12zM8.415 38.2h.295v-.47h-.295zM9.332 40.087l.168.167-.333.332-.168-.167zM9.536 43.314c.059-.294-.06-.588-.236-.823l-.354.353c.118.117.118.235.118.411l.472.059zM9.123 45.901l-.236.412c.059 0 .059.058.059.117l.413.235a.593.593 0 0 0-.236-.764zM8.474 49.898c-.118-.117-.118-.353-.06-.529l-.471-.176c-.118.294-.118.705.118 1l.413-.295zM8.002 51.662l.236.47c.059 0 .118 0 .118.059l.413-.235c-.177-.294-.531-.412-.767-.294zM9.966 54.396l-.445-.156.156-.444.446.156zM9.158 56.442l-.333-.332.168-.165.333.332zM7.53 57.012h.472v-.47H7.53zM5.724 54.69l-.316-.159.213-.42.315.159zM2.95 53.17l-.162-.441.443-.162.162.441zM3.34 50.604c-.06-.118 0-.294.059-.353l-.354-.352c-.177.235-.295.529-.177.823l.472-.118zM2.514 46.783h.472v-.47h-.472zM2.257 44.446l-.419-.215.162-.314.42.214zM3.49 42.436l-.212-.42.316-.16.212.421zM5.63 46.09l.156.749-.463.094-.157-.75zM5.26 51.492l.423.212-.16.314-.422-.212zM5.712 52.879l.15.446-.448.15-.15-.446zM10.244 49.713l.262.391-.442.294-.263-.391zM10.716 46.136h.473v-.294h-.473zM10.716 43.432h.473v-.294h-.473zM11.011 39.605l.16.173-.349.318-.16-.174zM10.598 57.834l-.236.47c.059.06.177.118.177.236h.472c.059-.294-.118-.588-.413-.706zM25.846 50.91l.295.576-.419.214-.295-.576zM25.463 56.18l.312 1.073-.454.132-.313-1.073zM24.23 60.95h.471v-.881h-.472zM23.94 63.464l-.31-.568.413-.226.31.567zM25.288 65.4l.77.3-.171.438-.77-.3zM28.097 67.937l-.437-.303.269-.385.437.303zM29.127 69.475h.472v-.47h-.472zM31.163 71.767l-.121-.455.628-.168.121.456zM33.376 73.12h.59v-.47h-.59zM34.674 72.414h.472v-.588h-.472zM33.943 68.552l-.458-.12.168-.627.458.12zM31.015 66.418c.059.353.236.705.472 1l.413-.295c-.177-.235-.354-.529-.413-.823l-.472.118zM29.127 63.42l-.472-.118c-.118.353-.06.764.177 1.117l.413-.235c-.177-.236-.236-.53-.118-.765zM29.318 60.592l.242.402-.758.453-.242-.403zM32.782 63.243l.337-.332.289.294-.336.332zM34.22 65.171l-.378-.282.46-.611.378.282zM34.143 60.186c-.177.235-.295.53-.177.823l.472-.118c-.06-.117 0-.293.059-.352l-.354-.353zM33.907 58.246h.472v-.47h-.472zM32.248 56.48l.157-.444.445.156-.156.444zM29.776 58.011h.177v-.47h-.177zM27.72 55.3l.436.177-.351.873-.437-.176zM29.868 52.92l-.422-.212.159-.314.422.212zM31.251 53.308h.177v-.47h-.177zM33.257 54.66l.236-.47h-.413c-.177 0-.177.059-.295.294l-.295.588h.413c.177-.059.177-.118.354-.411zM26.97 49.602l.168-.168.334.332-.168.168zM25.173 48.37l-.472-.235a.5.5 0 0 0 0 .411c.06.118.177.235.295.235l.177-.411zM23.167 46.489h.472v-.176h-.472zM23.108 51.368h.177v-.47h-.177zM23.344 53.896l-.236.47c.059.06.177.118.177.235h.472c0-.293-.118-.529-.413-.705zM22.93 57.423c-.235.176-.353.529-.235.764l.472-.235c0-.059 0-.118.059-.118l-.295-.411zM22.518 61.656l.472.118c.118-.412-.06-.823-.413-1.058l-.295.411a.434.434 0 0 1 .236.53zM22.955 64.237l-.334.332-.168-.165.334-.332zM22.777 66.215l-.3-.435.389-.268.3.435zM23.935 67.182l-.236.47c.059.059.177.118.177.235h.472c.059-.294-.118-.529-.413-.705zM25.469 69.298l.413.236c.059-.118.236-.177.354-.177l.059-.47c-.354-.059-.708.118-.826.411zM30.513 50.857l.334-.332.457.458-.333.332zM34.08 51.785l.119.456-.629.162-.118-.456zM37.388 52.485h.472v-.294h-.472zM37.153 55.719l-.295.411c.118.059.177.235.177.353l.472.059c.118-.294-.06-.588-.354-.824zM38.338 61.324l-.44.173-.306-.764.44-.173zM38.156 66.182l.472.06c.059-.295-.06-.589-.177-.765l-.413.294c.118.118.118.294.118.411zM37.6 69.419l.449.15-.15.447-.449-.15zM38.097 72.238c-.236.176-.236.47-.236.764 0 .117 0 .353-.06.411l.296.412c.236-.177.236-.47.236-.764 0-.118 0-.353.059-.412l.53-.47h-.884v.059h.059zM41.687 70.36l-.263-.391.443-.294.262.39zM44.706 69.357h.177c.059 0 .177 0 .236-.059.118-.058.177-.176.236-.294l-.472-.117-.177.47zM46.567 68.614l-.316-.35.658-.59.316.349zM47.892 66.947l-.422-.212.16-.314.421.211zM46.77 65.066h.473v-.47h-.472zM46.653 60.54h.472v-.177h-.472zM46.77 55.072h.473v-.177h-.472zM46.77 53.25h.473v-.177h-.472zM46.957 50.854l.392.261-.295.441-.392-.261zM47.084 48.373l.457.115-.16.626-.457-.115zM45.576 49.06l-.316-.158.213-.42.315.158zM42.758 50.604l.295-.412a.622.622 0 0 0-.767 0l.295.412c.118-.059.177-.059.177 0zM39.495 51.548l.168.167-.333.332-.169-.167zM39.374 59.372l-.286-.58.425-.208.286.58zM40.731 62.394l.422-.212.29.58-.423.21zM41.52 64.478h.235v-.353h-.236v.236h-.236l-.059.058.06.294h.235zM43.466 60.186h.472v-.47h-.472zM42.109 57.012h.472v-.882h-.472zM40.752 53.72h.472v-.47h-.472zM42.968 52.726l.44-.297.265.388-.44.297zM44.233 55.248h.472v-.47h-.472zM44.587 58.305h.295v-.47h-.295zM46.718 57.89l.342.327-.286.297-.342-.326zM48.246 57.423l-.413-.235c-.177.352-.177.823.059 1.175l.413-.293c-.118-.177-.118-.47-.059-.647zM47.538 61.597h.472v-.47h-.472zM47.243 63.714h.472v-.176h-.472zM45 63.948c-.177.294-.295.647-.177 1l.472-.118a.562.562 0 0 1 .118-.529L45 63.948zM44.233 67.3h.472v-.177h-.472zM42.876 67.476h-.118l-.413-1.235V68.123h.118l.413 1.234V67.77zM62.231 59.187h.473v-.176h-.473zM61.7 55.719l-.472-.06c-.059.471 0 .941.177 1.353l.473-.176c-.177-.412-.236-.765-.177-1.117zM61.818 53.543l-.472.059c0 .117-.059.294-.177.353l.236.411c.295-.176.472-.529.413-.823zM61.936 51.368l.472.06a.856.856 0 0 1 .354-.53l-.236-.411a1.33 1.33 0 0 0-.59.881zM61.346 47.9c-.118-.647-.118-.765-.354-.765v.294l-.236.06c0 .058.06.352.06.47.058.293.058.41.294.41v-.234l.236-.06V47.9zM60.73 44.246l.445.159-.16.444-.445-.159zM61.028 41.83l.448.15-.15.447-.449-.15zM62.777 40.525l.333.332-.457.458-.333-.332zM64.58 40.64l-.242-.403.758-.453.242.403zM67.044 38.103l.26.394-.443.291-.26-.394zM69.135 37.083v-.647l-.649.764c-.177.118-.295.294-.295.47v.647l.65-.764c.117-.118.294-.235.294-.47zM65.931 42.56l.16.314-.423.211-.159-.314zM63.824 42.903c-.059-.117 0-.235.06-.353l-.355-.352a.819.819 0 0 0-.177.882l.472-.177zM62.998 46.195h.472v-.177h-.472zM64.473 47.312l-.118-.353-.413.412c-.177.176-.236.235-.236.352v.118l.118.353.413-.412c.118-.117.177-.176.177-.294.06-.059.06-.117.06-.176zM67.955 43.608c-.118 0-.236.059-.53.353-.119.059-.178.176-.237.176l.118.235v.236c.118 0 .177-.06.413-.294.118-.06.236-.235.295-.235l-.118-.236v-.235h.06zM68.699 46.633l-.169-.167.334-.333.168.168zM67.778 49.252h.177v-.47h-.177zM65.83 50.604h.178v-.47h-.177zM64.281 53.402l.334-.332.168.165-.333.332zM63.766 56.424h.472v-.176h-.472zM63.116 58.011h.177v-.47h-.177zM61.464 58.834h.472v-.352h-.472zM64.919 56.909l-.248-.4.452-.276.247.4zM66.032 55.142l-.083-.461.93-.168.082.462zM68.35 55.13l-.215-.42.316-.161.215.42zM68.802 53.65l.59-.736.369.294-.59.735zM69.076 51.603l.118-.588H68.9c-.177 0-.236.06-.295.47l-.177.765h.295c.177.059.177.059.354-.647zM66.362 52.015h.472v-.588h-.472zM66.48 48.958l-.118-.47c-.413.058-.708.41-.826.822l.472.118c.118-.235.295-.412.472-.47zM67.247 47.841h.472v-.176h-.472zM64.473 44.255h.177v-.47h-.177zM68.132 41.786l.65-.765-.414-.293-.295.352v-.47h-.118v.53h.118l-.295.352zM60.697 41.374h.177v-.47h-.177z"/>
    </g>
</svg>
