<svg xmlns="http://www.w3.org/2000/svg" width="17" height="17" viewBox="0 0 17 17">
    <path fill="#43484F" fill-rule="evenodd" d="M14.98 0H2.02C.906 0 0 .902 0 2.016v12.968C0 16.097.905 17 2.02 17h12.96c1.115 0 2.02-.903 2.02-2.016V2.016A2.018 2.018 0 0 0 14.98 0zm-2.761 2.656c0-.293.238-.53.53-.53h1.595c.293 0 .53.237.53.53V4.25c0 .293-.237.531-.53.531H12.75a.531.531 0 0 1-.531-.53V2.655zm-3.7 2.602c1.806 0 3.27 1.46 3.27 3.262a3.265 3.265 0 0 1-3.27 3.261A3.265 3.265 0 0 1 5.252 8.52c0-1.801 1.464-3.262 3.269-3.262zm6.887 9.617a.532.532 0 0 1-.531.531H2.125a.532.532 0 0 1-.531-.531V6.906h2.125c-.277.398-.37 1.142-.37 1.614 0 2.844 2.32 5.16 5.17 5.16 2.852 0 5.173-2.316 5.173-5.16 0-.472-.068-1.204-.41-1.614h2.124v7.969z"/>
</svg>
