<svg xmlns="http://www.w3.org/2000/svg" width="128" height="24" viewBox="0 0 128 24">
    <g fill="none" fill-rule="evenodd">
        <path fill="#5F296A" d="M115.16 1.013c.118-.082-.212.247-.153.236a.459.459 0 0 0 .153-.236M115 12.015v.176c.082-.106 0-.235 0-.176M122.683 10.215s.317-.113.288-.17c-.029-.056-.27.181-.308.113L123 10a3.748 3.748 0 0 0-1.529.803l.356-.17c-.164.295-.692.227-.827.543.309-.15.61-.32.904-.509.28-.11.545-.266.788-.463M116 9.368c.153 0 .153-.411.082-.364-.07.047-.082.34-.082.364M121.264 10.635c.252-.183.498-.395.736-.635a3.674 3.674 0 0 0-1 .835c.099-.016.192-.086.27-.2M122.718 8.095s0-.07.06-.094c.058-.024-.754.376-.777.494-.024.118.647-.33.635-.33h-.106l.188-.07zM117.424 6c-.292.31-.437.653-.423 1a2.78 2.78 0 0 0 .423-1M121.702 9.166c-.347.136-.654.296-.984.45-.097.047-.726.277-.718.384.395-.195.806-.36 1.194-.592.29-.11.561-.248.806-.408-.089.065-.242.053-.323.136" opacity=".6"/>
        <path fill="#5F296A" d="M121 9c-.35.334-.685.728-1 1.176.349-.34.683-.733 1-1.176M117.084 1.072s0-.083-.07-.06c-.071.024.152.777.27.777.306 0-.188-.612-.094-.753.094-.14-.118.189-.106 0M118 11c.252.077.513.117.776.118A4.141 4.141 0 0 0 118 11M117.127 5c-.083.153-.188.365-.083.541.049-.176.077-.358.083-.541M121.4 8c-.07.176-.294.176-.4.318a2.87 2.87 0 0 0 .494-.177A.188.188 0 0 0 121.4 8" opacity=".6"/>
        <path fill="#5F296A" d="M118 11.376c.153-.223.494-.176.659-.376-.224.118-.518.153-.659.376M123 10.153a.8.8 0 0 0 .412-.153 1.176 1.176 0 0 0-.412.153M122.447 10.02c0-.082-.4.106-.447.177l.447-.177z" opacity=".6"/>
        <path fill="#5F296A" d="M122.388 10a3.035 3.035 0 0 0-.388.13 1.8 1.8 0 0 0 .388-.13zM118 11.165a.706.706 0 0 0 .235-.165.482.482 0 0 0-.235.165" opacity=".6"/>
        <path fill="#5F296A" d="M118.153 11l-.153.094a.188.188 0 0 0 .153-.094" opacity=".6"/>
        <path fill="#5F296A" d="M113.063 7.087a6.632 6.632 0 0 1-.107-1.784c-.03-.644 0-1.29.089-1.928.268-1.061.794-2.551 1.784-3.158.37-.236.83-.282 1.24-.125.262.101.485.286.632.527.089.106.17.22.241.339.054.116.125.312-.071.151-.054 0 0-.17-.072-.205-.071-.036-.08 0-.214 0a1.783 1.783 0 0 1-.437-.24.446.446 0 0 0-.178-.099c.062-.08-.098-.107 0-.178a.17.17 0 0 0-.178.214c-.08-.054-.08-.268-.152-.286-.071-.018-.125.098-.187.116-.297.051-.578.17-.82.348a.393.393 0 0 0 0-.098c-.143.09-.955 1.356-.848 1.436.107.08.508-.678.562-.74.053-.063 0 .125 0 .178.134-.098.187-.276.33-.365 0 .053-.098.187 0 .187s0-.16.134-.179c.08.152-.054.179-.08.277.08-.098.392-.401.276-.544-.116-.143-.24.187-.285.196a.892.892 0 0 1 .124-.285v.08c0-.009.312-.179 0-.08a.892.892 0 0 1 1.41.098 2.678 2.678 0 0 0 0 .339c.094.243.154.498.178.758 0-.046.024-.09.062-.116.063 0 0 .134.063.134.062 0 .178-.187.214-.107.01.122.01.244 0 .366v.705c0 .232 0 1.65-.197 1.641a.09.09 0 0 1 0-.071c-.053-.054-.142.553-.142.598h.071c.071 0-.446 2.177-.473 2.364-.08.482-.151.981-.24 1.454 0 .098-.098.107-.107.223-.01.116.062.304 0 .446.139-.399.237-.812.294-1.23.053-.242 0-.84.214-1.045.16.125-.17 1.223-.205 1.428l-.134.75c-.045.25-.053.303-.09.463-.035.16-.133.304 0 .232a.571.571 0 0 0 0 .16s.09-.062.108-.07c.018-.01-.054.258-.152.339-.098.08.125-.063.134 0 .009.062-.232.25-.232.25s-.205 0-.285.062c-.09.062-.175.134-.25.214-.089.098-.134.223-.223.321s-.196 0-.214.09c-.018.089.143 0 .16 0-.04.226-.06.456-.062.686-.053.295-.187.348-.125.705a.303.303 0 0 1 .099-.143.812.812 0 0 0 .508.893c.148.082.312.13.481.142.152 0 .34-.107.464-.089.125.018.116.125.063.33a3.16 3.16 0 0 0-.09.66c0 .34 0 .643-.062.982a15.441 15.441 0 0 1-.74 2.882 6.514 6.514 0 0 1-1.311 2.676 18.422 18.422 0 0 1-1.721 2.106 1.783 1.783 0 0 1-.5.24c-.17.109-.35.204-.535.286a.891.891 0 0 1-.419-.053c-.214-.09-.107-.08-.223-.196a2.91 2.91 0 0 1-.83-1.972v-1.07a4.463 4.463 0 0 1 .286-1.66c.446-1.142 1.061-2.213 1.579-3.32.227-.548.527-1.065.891-1.534.08-.09 1.062-.892 1.07-.892-.106-.16-.891.196-1.052.214a6.471 6.471 0 0 1-1.658 0 23.685 23.685 0 0 1-2.32-.535 6.633 6.633 0 0 1-2.594-.937 6.788 6.788 0 0 1-1.204-1.08c-.196-.232-.437-.82-.713-.945.187 0-.08-.447-.09-.536a1.062 1.062 0 0 1 .143-.607c.205-.356.687-.419 1.061-.57a5.66 5.66 0 0 1 3.273-.197c1.055.272 2.082.642 3.068 1.107.283.125.56.265.83.419.15.08.534.41.713.41.178 0 .098-.151.062-.357a4.41 4.41 0 0 1-.054-.936h.072c.044 0-.072-.277 0-.34.098.099.08.25.143.366.062-.071-.054-.419-.072-.508 0-.241-.071-.482-.098-.723-.027-.24.134-.839 0-1.106-.08.08-.08.651-.08.651zm.232-1.9a10.239 10.239 0 0 1 0-1.49c-.116.116-.098.464-.125.624a4.222 4.222 0 0 0 0 .687v1.365c0 .063.062-.312.062-.339.045-.258 0-.58.08-.82l-.017-.027zm2.265-.571a.509.509 0 0 0 .053-.322c0 .072 0 .099-.071.161a.187.187 0 0 0 0-.098.196.196 0 0 1-.071.09c-.08 0 .098-.367 0-.43-.17.42-.17.893-.321 1.321.053-.624.133-1.24.16-1.864l-.134.044c0-.107-.071-1.16-.098-1.16-.027 0 .098.652-.062.687 0 0-.08-.303-.107-.25-.027.054-.063.536-.063.723 0 .188-.116.892-.223.964-.107.071.072-.607 0-.616a3.24 3.24 0 0 0-.142.75.58.58 0 0 1 .071-.134c.09 0-.152 1.525-.062 1.543.089.018 0-.089 0-.107 0-.018.16 0 .098 0 0 .232-.107.652.062.839 0-.598.196-1.213.205-1.784 0-.108-.044-.215 0-.313.045-.098.116-.312.125-.526.014.175.014.351 0 .526.045 0 0-.196.054-.223-.106.58-.169 1.168-.188 1.758a3.57 3.57 0 0 1 .188-.625c.02.387-.044.774-.188 1.133a.473.473 0 0 0 0-.133.5.5 0 0 0 0 .196c.116-.16 0 .196 0 .24-.008.14-.008.28 0 .42.022.394.094.784.214 1.16-.031-.46-.031-.923 0-1.383a1.91 1.91 0 0 1 .241-1.196v.295c.179-.34-.151-.812.16-1.089 0 0-.044.286 0 .277.045-.009.179-.544.099-.616l-.063.125a.83.83 0 0 1 .063-.392v.009zm-2.586 10.135c.154-.319.345-.618.57-.892-.116.045-.17.17-.294.205a.767.767 0 0 0 .17-.214 1.64 1.64 0 0 0-.357.16c-.24.236-.441.507-.598.804-.151.223-.963 1.275-.749 1.56a1.91 1.91 0 0 0 .072-.222l.053.053c.063 0 .125-.303.134-.339 0 .125-.42 1.437-.366 1.428.054-.009.152-.223.179-.312.098-.26.178-.562.267-.839.109-.316.259-.616.446-.892.071-.116.16-.214.24-.33.081-.116.143-.322.233-.42a.259.259 0 0 1 0 .25zm2.416.527c-.053.098-.178.223-.187.347 0-.062.321-.437.214-.49v.143h-.027zm-3.317-3.337c.045 0-.054 0-.045-.045.01-.045.134.09.116.054-.018-.036 0 0 0 0 .196 0 .74.312.892.062-.062 0-.517-.053-.553-.125.172.01.345.01.517 0a.776.776 0 0 1-.223-.09c.09 0 .5.054.562 0 .063-.053-.535-.053-.562-.088.06.011.12.011.179 0-.15-.019-.3-.049-.446-.09h.178l-.517-.25s.268.072.312.126c.045.053-.267 0-.294 0 .17.07.374.053.526.17-.062.07-.589 0-.66 0a1.114 1.114 0 0 1-.624-.153c.219.034.441.034.66 0-.072.063-.731-.33-.838-.41.098-.054.32.08.436.098.116.018.429 0 .643 0 .365 0 .74.116 1.105.16.08 0 .696.09.732-.115.035-.205-.553-.321-.616-.366a1.623 1.623 0 0 0-.446-.34 4.52 4.52 0 0 0-.954-.276 7.64 7.64 0 0 1-1.596-.5c.06.037.117.078.17.126-.152 0-.705-.268-.83-.161 0-.062-.58-.214-.58-.214h.188a.508.508 0 0 0-.304-.08l.116.08c-.294.125-.65-.125-.891 0l.535.152a6.24 6.24 0 0 1-1.472-.08 3.467 3.467 0 0 0-1.409-.09l.16.09c0 .088.438 0 .438.053s-.098.053-.143.125h.276c-.09.056-.186.104-.285.142.071 0 .071.033 0 .099.09 0 .205-.099.294 0 .116-.161-.107-.134.259-.125.303.01.603.061.892.151a5.616 5.616 0 0 0-.892-.071c.232.16 1.962.285 1.97.401.01.116-.15-.107-.088-.124.232-.072.891.258 1.123.339-.215.004-.43-.01-.642-.045a.633.633 0 0 1 .446.24.65.65 0 0 1-.633-.08.785.785 0 0 1-.196-.124c-.072-.072.08-.072.089-.09-.187-.124-.24 0-.107.143-.2.016-.402.001-.598-.044.054-.08.143 0 .197-.054.053-.053-.393-.08-.197.045a3.04 3.04 0 0 1-1.248-.197 2.193 2.193 0 0 0-.892-.071s-.722 0-.562.125h-.062s.053.143 0 .116c-.054-.027.125-.09.16 0h-.08c-.062.071.321.107.339.152a.472.472 0 0 1-.473.053c.321.366.107.054 0 .17.304.24.054.312.428.517h-.07a2.22 2.22 0 0 1 .837.116s-.124 0-.08-.053c.045-.054.669.062.82.062.152 0 .58-.062.767.071h-.606c.045.107.892.099.892.125 0 .027-.937 0-1.017 0a7.131 7.131 0 0 1-1.658-.267c0 .196.891.232 1.043.33.152.098-.401.089-.401.089.207.039.413.09.615.152 0 .062-.187 0-.24.053a15.67 15.67 0 0 0 5.885.143c0-.107-.722 0-.838 0-.116 0-.49-.098-.705-.16.116-.045-.143-.081-.16-.108.231-.151.642.268.891.063a.143.143 0 0 1-.116 0 .053.053 0 0 1 .072 0l.089-.107zm1.64 5.853a1.981 1.981 0 0 0-.311.65c0-.187.258-.454.312-.65zm-6.696-6.246c.036.018.079.018.116 0a.437.437 0 0 0-.206 0h.09zm4.53 9.047c.205 0 .517-.401.428-.624a.232.232 0 0 1-.116.196.295.295 0 0 0 .045-.188c0 .054-.286.518-.286.509-.041.13-.062.167-.062.107h-.01zm-1.23-10.983h.07c-.115 0-.222-.16-.347-.107.089.034.182.058.276.071v.036zm1.355 8.6a.384.384 0 0 1 .124-.169c.054.134-.089.116-.089.188 0 .071.063.223-.107.374-.197.374-.35.769-.455 1.178-.039.195-.095.386-.169.571-.053.134-.267.527-.223.67.035-.086.08-.167.134-.242-.007.181-.062.357-.16.509.142-.08.57-.83.454-.964.072.054.143-.124.143-.187a.098.098 0 0 0-.054.08c.019-.08.046-.157.08-.232.099-.24.206-.5.322-.731a3.828 3.828 0 0 0-.366.624c-.08-.116.214-.589.25-.687.133-.303.303-.58.472-.892.17-.312.598-.892.366-1.017a4.98 4.98 0 0 1 .482-1.276c.078-.215.19-.417.33-.598 0 0 .24-.33.32-.348a.544.544 0 0 1-.142.241c.25 0 .178-.276.205-.392.1-.19.222-.367.366-.527-.054.072.231-.383.25-.25.017.134-.313.447-.357.625a.49.49 0 0 1 .196-.143c-.107.214-.553.678-.535.892 0-.107.276-.419.33-.508.053-.09.17-.303.276-.464.107-.16.285-.339.384-.509.098-.17.098-.553 0-.508.08 0 .098.044.098-.054v-.205s0 .08-.063.063c-.062-.018-.25-.161-.232-.072a.607.607 0 0 1 0-.366.5.5 0 0 0-.428.464.589.589 0 0 1 .304-.205c-.197.268-.464.464-.643.74a.526.526 0 0 1 .241-.169c.143.098-.83 1.115-.936 1.24-.308.427-.546.9-.705 1.401-.142.366-.339.723-.472 1.098a3.338 3.338 0 0 1-.25.588l-.17.375.224-.214a.892.892 0 0 0 .285-.428s-.143.258-.17.25c-.026-.01.223-.456.223-.464-.16.107.197-.777.366-.759a.723.723 0 0 0 0 .259c.045-.223.125 0 .116.09-.009.088-.16.508-.214.338 0 0-.41.892-.392.892a.892.892 0 0 0 .098-.214l-.107.045zm-4.352-6.717c.051.02.109.02.16 0h-.16zm5.636 6.067c-.063.062 0 0 0 0zm-5.244-9.297s-.339-.143-.446-.072c.134.008.267.035.393.08 0 .054-.295 0-.277 0 .185.09.385.14.589.152.116 0 .463.134.562.09-.045-.107-.892-.241-.83-.277l.01.027zm6.046 6.977a.187.187 0 0 0 .072-.143c-.09.071 0 .09-.072.143zm-3.861-5.692s.17.098.24.08a.606.606 0 0 0-.24-.08zm4.459 7.307s0 .053 0 0c0-.054.17-.268.151-.366-.089.062-.107.259-.151.348v.018zm-.999.874c-.053 0-.08.134-.125.17a.071.071 0 0 0 0-.054 3.222 3.222 0 0 0-.49 1.017c.258-.259.24-.74.535-.963.107.151-.446 1.026-.535 1.186-.223-.223-.34.536-.375.643-.12.267-.257.526-.41.776-.08.257-.195.503-.339.731.143.063.455-.276.446-.401-.009-.125 0 .348 0 .348.152-.063.33-.732.41-.892.205-.437.428-.892.651-1.285.223-.393.428-.955.678-1.419.107-.205.276-.365.375-.58.1-.303.215-.601.347-.892.005.092.005.185 0 .277a.143.143 0 0 1 .045-.116.17.17 0 0 1 0 .116c.074-.167.133-.34.178-.518a.232.232 0 0 0-.223.098.893.893 0 0 0 .072-.25c-.072.099-.098.26-.188.34-.089.08-.169.062-.231.125-.063.062-.116.356-.268.446 0-.066-.03-.095-.09-.09.045-.276.349-.098.144-.356 0 0-.232.232-.179.053 0 0 .508-.75.428-.767-.08-.018-.16.267-.267.267v-.16c-.197.09-.277.482-.348.642-.071.16-.312.437-.268.527.045.089.295-.322.33-.26.036.063-.16.215-.16.295 0 .232 0 0 .151.063.152.062-.089.294-.133.285a.098.098 0 0 1 0-.053 4.587 4.587 0 0 0-.33.669c.037-.096.081-.188.133-.277 0 0 .206 0 .241-.053.036-.054.232-.366.259-.357.027.009-.366 1.044-.526.946.053-.093.095-.192.125-.295l-.063.018zM115.203.61h.062c-.214 0-.08.32-.178.41a.152.152 0 0 1 .125 0 .276.276 0 0 1-.107.071c.098.116.214-.098.268-.214a.615.615 0 0 0-.17.054c.023-.077.053-.152.09-.223 0 0-.143.098-.081 0l-.009-.098zm-8.57 9.618h0zm6.742 8.868c-.366.428-.42 1.356-.999 1.606-.071-.098.294-.607.33-.696.036-.089.464-.696.401-.892-.133.045-.258.402-.32.526-.197.384-.402.768-.571 1.17l.16-.135a.24.24 0 0 1-.071.143c.116 0 .517-.553.553-.526a.598.598 0 0 1-.34.374c.233.054-.338.768-.347.893.141-.157.29-.305.446-.446.134-.116.339-.438.49-.5-.099.204-.242.384-.419.526.054 0 .116.063.179.054.062-.01.08-.063.116-.08.222-.099.285-.322.472-.455l-.089.223c1.061-1.232 1.436-3.06 1.784-4.569-.09.134-.206.812-.428.759.07-.179.24-.402 0-.509-.09.305-.2.603-.33.893-.107-.152.062-.34 0-.464-.09.053-.17.704-.232.678-.063-.027.107-.705.107-.75 0-.044-.25.482-.188.518a.455.455 0 0 1 .072-.134c.08.196-.143.196-.152.214a2.677 2.677 0 0 0-.187.41c-.098.232-.5.75-.446 1.009.054-.072.107-.33.232-.322-.071.107-.143.446-.268.5-.125.054 0-.17 0-.071l.045.053zm-.473-1.641a.08.08 0 0 0-.053.08.375.375 0 0 0 .107-.152l-.054.072zm-.998 1.73s-.045.045 0 .072c.075-.118.138-.244.187-.375 0-.09-.179.321-.17.303h-.017zm2.265-16.693c-.179.08-.268.812-.295.955.134-.054.179-.562.223-.687.045-.125.098-.33.072-.268zm.116 13.383v.098c.08-.07 0-.196 0-.098zm-.892-1.847l.062-.089-.062.09zm1.186-3.3c.053-.117.16-.233.151-.367a1.374 1.374 0 0 0-.196.41s.045 0 0 0l.045-.044zm-.098 3.613l.053-.116-.267.482a.544.544 0 0 0 .214-.357v-.01zm.312-8.021s-.071.151 0 .16c.071.01.053-.285.053-.17l-.053.01zm1.427-3.23a.187.187 0 0 0 0 .17c0-.072 0-.215-.054-.268l.054.098zm-4.504 16.88a.5.5 0 0 0 .125-.258c-.08.062-.098.205-.152.285-.053.08 0 0 0 0l.027-.026zm3.47-13.356a.09.09 0 0 0 0-.134c.005.104.005.209 0 .313v-.179zm-3.282 13.16a.892.892 0 0 0 .178-.41 5.764 5.764 0 0 0-.178.41zm1.944-17.228l-.072.08c0 .071.196-.071.045-.134l.027.054zm2.577 1.543a.553.553 0 0 0 .053-.25v-.767c-.232.072.09.74-.116.794a3.954 3.954 0 0 0-.267-1.24c-.063-.25-.152-.482-.232-.732a2.677 2.677 0 0 1-.125-.276l.187.196s-.098-.312-.089-.312c.01 0 .063.044.08 0 .018-.045-.58-.892-.436-.892 0 0-.26.151-.26.062 0-.09.117.054.117.098 0 .045.062.197.053.179.063.125.188.267.268.401l-.205-.053c.053.062-.179.33-.054.339h.063s.116.383.142.437c.027.053 0 .09 0 .125s.098.053.125.098c.207.365.32.776.33 1.195 0 .33-.17.75-.24 1.098-.072.348-.125.562-.17.892 0 .143 0 .714-.152.812-.151.098 0-.098-.053-.09a3.624 3.624 0 0 0-.179.982 1.49 1.49 0 0 0 0 .464c-.009.269-.033.537-.07.803 0 0 0-.143-.081-.098.008.134.008.268 0 .401 0 .134-.143.518.08.5-.187-.071.437-2.275.508-2.614.072-.34.188-.553.232-.892.072-.527.295-1.044.33-1.57.072.089 0 .187 0 .276 0-.053 0-.348.054-.375.053-.026 0 .125 0 0l.107.01zm.205-.214c-.107.09-.098.544-.116.67.086-.213.126-.441.116-.67zm-3.344 1.089V4.928c0-.063 0 0 0 0v.036zm-2.444 14.694c.078-.03.078-.074 0-.134-.06.15-.06.194 0 .134zm2.676-14.82c.089-.053 0-.097 0-.169a1.366 1.366 0 0 0-.125.66c0-.133.134-.356.089-.49h.036zm1.614 2.115a.34.34 0 0 0 0-.187v.187zm-1.383-3.122a.616.616 0 0 0 .045-.25.75.75 0 0 0-.045.25zm1.008 6.245a.232.232 0 0 0 0 .25 2.07 2.07 0 0 1 0-.25zm-6.447-.642a1.97 1.97 0 0 1-.402-.072V9.31c-.071-.134-.74-.08-.891-.08-.152 0-.072.07-.188.062a4.36 4.36 0 0 1-.535-.16l.107.106a.446.446 0 0 0-.32 0c.222.063.456.08.686.054h.196c.062 0 0-.08.045-.08.422.015.843.065 1.257.151l.045.072zm2.39 11.928a.58.58 0 0 0-.09.197c.054 0 .16-.223.152-.26l-.062.063zm4.146-18.736a.42.42 0 0 0-.071.33c0-.09.152-.33.08-.41a.08.08 0 0 0-.009.08zM112.367 18.4s-.116.179-.08.188l.053-.054s0 .107.054.063c.053-.045 0-.188 0-.232 0-.045 0 0 0 0l-.027.035zm-1.186.928c-.116.08 0 .205-.053.303a.893.893 0 0 0 .053-.303zm4.682-15.373a.643.643 0 0 0-.062.348 1.42 1.42 0 0 0 .089-.615.34.34 0 0 0 0 .267h-.027zm-4.432 17.354s.205-.232.053-.232c-.151 0-.071.24-.089.285v-.053h.036zm2.55-13.606a.794.794 0 0 0 .054-.437c0 .24-.027.48-.08.713a.357.357 0 0 0 0-.312l.026.036zm-5.68 2.685c.089 0-.357-.134-.295 0 .063.134.268 0 .295 0zm5.734 4.818a.803.803 0 0 0 .205-.294c-.062.08-.25.357-.205.294zm-.134.892s.321-.285.232-.339c-.09-.053-.223.313-.232.34zm-2.586 4.577c-.152.054-.178.429-.178.545.045-.186.104-.368.178-.545zm4.049-10.822v-.098a.045.045 0 0 1 0 .053V9.47a.17.17 0 0 1 .089.08c-.071-.35-.071-.71 0-1.061.044-.259.089-.518.134-.767.044-.25.231-.59.124-.777-.179.419-.282.866-.303 1.32 0 .117 0 .26-.044.358a2.07 2.07 0 0 0-.152.41c0 .16.08.277.08.42 0 .142-.053.124-.062.205a7.39 7.39 0 0 0-.09.812c0-.179.108 0 .143-.215a1.107 1.107 0 0 0 0-.401h.08zm-3.906 7.486s-.286.428-.179.49c.093-.15.154-.316.179-.49zm1.043.981s-.276.437-.223.509c.045-.108.321-.322.321-.5 0 0-.16.24-.17.24a.535.535 0 0 1 .099-.294v.045h-.027zm3.184-8.556a1.705 1.705 0 0 0-.17.713c.082-.23.138-.47.17-.713zm-2.07-1.428c-.124.09-.062-.098-.16-.107 0 .134.223.348.063.446-.09-.071 0-.214-.152-.267 0 .062.366 1.168.5 1.106.133-.063-.429-.964-.25-1.124.08.053 0 .16.16.205 0-.286-.17-.16-.098-.455a.196.196 0 0 0-.062.196zm2.39-2.141c-.142 0-.249.589-.169.714.125 0 .143-.607.179-.714.035-.107.392-.892.258-1.07-.062.187-.348.891-.267 1.07zM113.58 8.05c.07-.504.07-1.014 0-1.517 0 .232-.214 1.472 0 1.597v-.08zm-.187 7.7c-.17.07-.17.445-.34.57a1.33 1.33 0 0 0 0-.25 3.15 3.15 0 0 1 .117-.303c-.312.063-.589 1.214-.678 1.481.259-.25.232-.776.544-.892a.34.34 0 0 1-.09.17c.152.071.705-.99.759-1.107.053-.116-.321.34-.321.34l.009-.01zm3.023-13.303c-.054.17 0 .348 0 .517l.071-.125a.303.303 0 0 0 .09.098 2.285 2.285 0 0 0-.054-.83c0 .045-.17.152-.143.197.027.044.08-.054.125.071.017.142.017.286 0 .428-.16-.062-.062-.24-.116-.356h.027zm-2.185 7.2c-.152-.188 0-.964-.152-1.026 0 0-.098.981.152 1.026zm-.535 2.284a.972.972 0 0 0-.678 0c.223.044.455.151.678 0zm2.283-10.305l.312.892c.107-.098-.214-.785-.312-.892zm-1.391 1.891c-.105.2-.14.43-.098.652 0-.215.089-.429.098-.652zm.588 3.57c-.187 0 0 .784 0 .802v-.803zm-.544 8.77c.085-.125.154-.26.205-.402-.124.08-.187.214-.303.303.078 0 .11.033.098.098zm-2.327 3.3c-.054.126-.187.206-.214.34a.276.276 0 0 0 .214-.34zm2.399-11.34v.607a.803.803 0 0 0 0-.606zm-.83 4.051a.5.5 0 0 0 .259.116c.09 0-.125-.232-.259-.116zm-.062-1.41c-.054-.133-.098-.231-.25-.16-.151.071.205.143.25.16zm-6.189-1.23c.238.04.48.058.722.053a3.155 3.155 0 0 0-.722-.054zm8.74-6.764s-.072-.58-.125-.455c-.054.125.098.375.124.455zm-5.44 16.685c.062 0 .16-.393.151-.402-.009-.009-.143.357-.151.402zm2.621-7.049a1.382 1.382 0 0 0-.428 0c.143.054.286 0 .428 0zm2.676-9.627s.071.455.125.384a.893.893 0 0 0-.125-.384zm-1.962 3.462a1.509 1.509 0 0 0 0-.348.518.518 0 0 0 0 .348zm-1.784 12.92s-.098.124-.08.16c.018.036.187-.241.08-.16zm2.016-9.877a1.401 1.401 0 0 0 0 .365.571.571 0 0 0 0-.365zm-.098.178a.893.893 0 0 0 0 .339.652.652 0 0 0 0-.339zm-2.943 9.377a.196.196 0 0 0 0-.196c-.045.062-.116.125 0 .196zm4.2-1.427c-.071 0-.08.196-.08.232a.518.518 0 0 0 .08-.232zm-3.398 1.534a.24.24 0 0 0-.098.214.42.42 0 0 0 .098-.214zm1.106-10.555s-.053.241 0 .17a.357.357 0 0 0 0-.17zm1.579 1.303a.241.241 0 0 0 0 .24v-.24zm-6.421-.054h.267a.267.267 0 0 0-.267 0zm5.984-1.614s-.054.223 0 .16a.616.616 0 0 0 0-.16zm-.892 7.378a.615.615 0 0 0 .17-.17.25.25 0 0 0-.17.17zm1.516-1.097a.223.223 0 0 0-.152-.134c.033.061.087.11.152.134zm-.09-12.875l-.062.16c.083 0 .104-.053.063-.16zm.143 7.04c.042-.066.042-.11 0-.134a.179.179 0 0 0 0 .134zM111.61 20.79a.321.321 0 0 0 .08-.17.178.178 0 0 0-.08.17zm.49.322l.063-.143a.16.16 0 0 0-.062.143zm.25-9.511s-.178-.054-.124-.054a.134.134 0 0 0 .133 0l-.009.054zm-.089 7.316a.178.178 0 0 0 .063-.09c-.066 0-.087.03-.063.09zm-5.734-8.753h-.178a.223.223 0 0 0 .178 0zm5.44 1.098c.044.01.09.01.134 0a.116.116 0 0 0-.134 0zm2.88 2.498h0zm-8.614-3.57c0 .126.125-.062 0 0zm6.073 9.45c0-.063 0 .133 0 0zm4.2-15.918c0-.053-.053.08 0 0zm-3.282 14.133c-.044 0 0 .054 0 0zm-.99 3.051c-.062 0 0 .063 0 0zM110.45 9.71c.062 0-.09-.071 0 0zm4.824-1.99c0-.07-.044 0 0 0zM119.35 13.379c.923.48 1.783 1.07 2.562 1.761.708.63 1.379 1.3 2.008 2.008.255.317.553.74.78 1.004.215.35.408.71.58 1.083.33.449.571.957.71 1.497.047.266 0 .54-.131.775-.115.194-.378.291-.474.467a.15.15 0 0 0 0-.08s-.597.107-.684.098a5.093 5.093 0 0 1-.58 0 7.328 7.328 0 0 1-1.56-.749 9.662 9.662 0 0 1-2.903-2.642 23.939 23.939 0 0 1-1.983-3.082 3.469 3.469 0 0 1-.675-1.656c0-.255.14-.255.325-.396.151-.1.292-.215.42-.343l-.228.052a4.69 4.69 0 0 1 .22-.669c0-.053.123-.44 0-.423l.079.062c.012-.12.012-.24 0-.361 0-.097-.14 0-.176 0a.342.342 0 0 1 .334-.229.149.149 0 0 1-.14-.167c-.238.158-.474-.053-.29-.264.184-.212.877-.414 1.228-.564a9.286 9.286 0 0 1 2.192-.96c-.263.238-.64.273-.93.476.29.079 1.036-.397 1.29-.511.439-.194.877-.529 1.342-.67 0 .256-1.009.573-1.21.67-.474.22-.965.414-1.448.616.492-.229 1.027-.422 1.527-.616a7.407 7.407 0 0 1-1.237.599 5.9 5.9 0 0 0-1.228.537c.28.053.798-.344 1.044-.45l1.06-.457c-.078.185-.727.352-.92.431-.193.08-.465.141-.482.264-.018.124-.457.185-.518.203.272 0 .509-.158.772-.176l-.474.185a9.167 9.167 0 0 0 2.491-.88.23.23 0 0 0 0 .078c.283-.154.576-.29.877-.405.14-.052.281-.097.421-.14.094-.027.185-.063.272-.106.132-.08.132 0 0-.088.458-.25.93-.473 1.412-.67-.21.112-.439.183-.675.212a.876.876 0 0 0 .237-.124 8.744 8.744 0 0 1-1.053.318l.36-.141c-.263-.07-.772.273-1 .387-.253.139-.52.248-.798.326 0 0 .675-.45.745-.484.32-.12.63-.26.93-.423.234-.152.478-.29.728-.414.184-.088 1.017-.273 1.061-.423h-.044c.283-.191.576-.368.878-.528a3.08 3.08 0 0 0 .543-.238h-.5c-.196.045-.387.11-.57.194-.394.176-.824.273-1.21.484.161-.066.329-.116.5-.15a7.13 7.13 0 0 1-1.754.687 4 4 0 0 0-.614.265l-.36.167c-.131.062-.509.37-.202 0a6.907 6.907 0 0 1-1.131.713c.356-.096.7-.232 1.026-.405-.491.23-.938.52-1.447.731l-.772.308c-.184.07-.623.335-.816.273.492-.167.974-.431 1.448-.643.473-.21.728-.598 1.149-.827-.132 0-.64.484-.763.378 0 0 .99-.713 1.078-.775.202-.134.393-.284.57-.449a1.69 1.69 0 0 0 .228-.282V7.4c-.201-.07.123-.343.123-.484a3.117 3.117 0 0 0-.28.238s0 .14-.062.167c-.182.16-.393.283-.622.361.192 0 .333-.14.508-.194-.131.23-.465.291-.658.44 0 0 .21-.158.15-.193-.062-.035-.755.405-.878.484-.307.15-.57.353-.877.52-.307.167-.675.405-1.017.616-.263.198-.56.344-.877.432.443-.406.918-.774 1.42-1.1.238-.168.474-.362.72-.512 0 0 .5-.264.36-.255a6.674 6.674 0 0 1 2.35-1.25 8.856 8.856 0 0 1 2.631-.661 2.85 2.85 0 0 1 1.518.308c.193.106.363.25.5.423a.98.98 0 0 1 .149.88 3.007 3.007 0 0 1-1.018 1.964 3.76 3.76 0 0 1-1.017.643c-.395.176-.816.212-1.21.37a14.494 14.494 0 0 1-3.737 1.304c-.427.07-.847.18-1.254.325a5.063 5.063 0 0 0-1.368.414c-.281.212.219.238.438.405.22.168.395.405.509.326l.053.009zm4.28 5.645c-.078 0-.078-.15-.175-.14.132-.203.123.052.272.052 0-.088-.061-.15.08 0a1.235 1.235 0 0 0-.159-.326c.08.062.22.255.228.07a.342.342 0 0 0 .123.089 1.508 1.508 0 0 1-.29-.546c-.06-.133-.122-.326-.254-.397.03.05.05.103.062.159a4.657 4.657 0 0 0-.693-.925c-.114-.14-.439-.414-.465-.52-.026-.105-.053 0 0 0-.123-.061-.28-.308-.412-.405a17.474 17.474 0 0 1-.755-.607 9.72 9.72 0 0 0-1.245-.88c-.421-.256-.746-.45-1.096-.723-.106-.07-.72-.52-.816-.493.254.282.465.502.675.775a1.032 1.032 0 0 0-.114-.238.149.149 0 0 1 .106 0c0-.167.122.123.122.123.06.189.143.369.246.538.088.132.324.678.5.74 0 0-.307-.582-.307-.6a.982.982 0 0 1 .395.265l.385.387c.334.3.746.502 1.088.793.193.167.237.202.447.37.238.176.445.39.614.634.146.197.27.41.369.634a32.865 32.865 0 0 0-1.693-1.612c0 .07.246.264.307.317.061.053.579.379.57.546-.132 0-.246-.167-.377-.22 0 .062.096.062.14.097.044.035.22.255.333.396.334.405.939.758 1.193 1.215-.122.044-.535-.457-.596-.52-.298-.29-.579-.624-.877-.88-.298-.255-.491-.405-.737-.616-.246-.212-.263-.212-.395-.308-.131-.097-.36-.388-.219 0-.14-.053-.149-.247-.263-.326.096.422.588.651.702 1.065-.106 0-.316-.396-.36-.449a3.16 3.16 0 0 0-.438-.599c.213.504.51.969.877 1.374.131.167.833.793.728.995a1.09 1.09 0 0 0-.342-.36c.23.308.479.602.745.88.189.193.356.405.5.634-.15.044-.772-.757-.877-.88 0 .14.824 1.091.947.977 0 .176.167.211.263.308-.158 0 0 .185.07.176-.114-.114 0-.114 0-.185 0-.07-.14-.158-.193-.229l-.412-.634.114.3a2.639 2.639 0 0 1-.728-.837c.158.102.295.234.404.387a2.44 2.44 0 0 0-.404-.563s-.044 0 0 .044a1.223 1.223 0 0 1-.184-.238c.105-.088.456.44.526.51.07.071.22.177.316.274.097.097.237.414.272.423a.114.114 0 0 0 .061-.08c.048.02.092.047.132.08l-.061-.15s.438.335.394.423a.052.052 0 0 1-.07 0c-.053.202.202.15.298.167-.28-.396-.701-.731-1.008-1.1-.3-.42-.628-.817-.983-1.19.08 0 .395.264.448.308.188.166.367.342.535.529.14.131.263.279.368.44a.406.406 0 0 1 .07.317c0 .08.588.485.605.529.018.044-.263-.22-.201-.344a.29.29 0 0 1 .14.106s-.14-.194-.15-.168c-.008.027.062 0 .071 0 .009 0-.096-.246-.105-.273.144.097.3.174.465.23.07 0 .166-.071.175-.062l-.026-.053zm.124.933a.07.07 0 0 0 .043.097s-.079-.273-.131-.273c-.053 0 .088.168.088.176zm-1.316 0c-.053-.123-.298-.246-.368-.387.087 0 .175.158.254.176a9.154 9.154 0 0 0-.754-.828c-.106-.114-.64-.88-.799-.88 0 0 .448.59.457.59.28.308.578.599.877.88-.15.097-1.228-1.259-1.369-1.435a22.501 22.501 0 0 1-1.49-2.29c-.15.23.376.88.482.995l.43.678c.096.141.342.335.385.494h-.087c.147.205.328.384.535.528.124.144.239.297.342.458l.21.15c.074.072.145.149.21.229.167.185.562.686.878.686a.175.175 0 0 0-.15-.088l-.043.044zm-2.36-5.336c-.06 0-.227-.23-.324-.247.09.105.2.189.325.247zm2.448-4.826c.131-.062.271-.08.403-.132-.053.167-.877.405-1.026.475-.47.211-.95.396-1.439.555-.412.14-.833.229-1.236.37-.404.14-.772.106-1.035.379a11.21 11.21 0 0 0 1.693-.238c-.546.145-1.1.257-1.658.334.237.203.78 0 1.07-.096.39-.082.774-.191 1.149-.326 0 0-.061 0-.061-.097s-.106 0-.123 0c-.018 0 .561-.203.587-.211.265-.095.538-.163.816-.203-.398.175-.812.31-1.237.405.167.132.816-.194.983-.255.166-.062.517-.124.14.07.29 0 .57-.176.833-.15-.105 0 .237-.167.193-.14.192-.07.393-.109.597-.115-.07.088-.527.159-.097.123a1.147 1.147 0 0 1-.272.124.247.247 0 0 0 .053-.132l-.22.07c0-.194-.263.194-.306.229-.305.142-.631.234-.965.273.061-.167.991-.3.991-.432-.467.04-.918.191-1.316.44a.306.306 0 0 1 .14 0 3.873 3.873 0 0 1-.824.22c-.254.104-.524.16-.798.168.19-.027.375-.078.553-.15-.338.02-.67.094-.983.22-.149 0-.815.089-.877.212h.456c-.193.053-.394.07-.596.106.465.07.938.07 1.403 0a.316.316 0 0 1-.202.167c.246.14.457 0 .667-.08.21-.078.877-.096.93-.29a.306.306 0 0 1-.246 0 .49.49 0 0 0 .351-.15 8.574 8.574 0 0 1-1.465.317c.395-.079.78-.184 1.167-.299.14 0 .772-.15.877-.282a.367.367 0 0 1-.263 0l1.026-.273c.123 0 .246-.105.368-.15.206-.037.406-.1.597-.184 0 .158-.43.132-.421.281h.044c-.053.185-.264 0-.281 0-.018 0-.342.185-.482.124l.06-.08c-.113.115-.288.115-.429.194.163 0 .324-.033.474-.097 0 0-.404.37-.246.124a.385.385 0 0 0-.22.061h.124c-.29.124-.597.212-.877.353.266-.042.524-.128.763-.256.29-.088.587-.123.877-.22.299-.093.592-.205.877-.335.175-.088.623-.229.702-.396h-.123s1.157-.493 1.087-.581c-.07-.088-.754.396-.877.3.123-.098.28-.133.404-.23-.5.159-.956.423-1.474.537.088-.061.21 0 .28-.132h-.332c.535-.176 1.035-.449 1.56-.634a8.063 8.063 0 0 1-.789.256c.106-.097.255-.097.369-.176h-.123c.518-.261 1.051-.49 1.596-.687l-.701.378c.166-.044.315-.123.482-.158-.096-.062.158-.115.21-.15.193-.123.351-.326.597-.317a.577.577 0 0 0-.228 0c.088-.062.228-.14.237-.062.086-.076.18-.144.28-.202a.166.166 0 0 1-.105 0 .501.501 0 0 0 .105-.123 6.998 6.998 0 0 0-.877.308c-.482.176-.947.44-1.43.625-.482.185-1.008.37-1.508.555a7.74 7.74 0 0 1-1.447.484 3.5 3.5 0 0 1 .605-.255c.311-.14.63-.26.956-.361.29-.097.57-.203.877-.308.062 0 .202 0 .246-.089.044-.088-.062-.114-.106-.105.106-.141.281-.194.421-.3-.78.282-1.543.626-2.306.934a.954.954 0 0 0 .368-.15l-.017.018zm1.85 10.286c.014.08.058.153.123.202-.079-.088 0-.229-.132-.29a.23.23 0 0 0 0 .088h.01zm-3.894-2.642a.758.758 0 0 0-.202-.3c.132.203.351.678.597.758 0-.07-.325-.485-.395-.458zm.325-2.36l-.202-.176c-.053.088.561.51.684.44-.14-.044-.333-.29-.474-.273l-.008.009zm.008 3.628s.237.44.36.475c.123.036-.254-.44-.36-.475zm3.053-.537v.114a.079.079 0 0 0-.088 0s.22.361.245.088c.027-.273-.263-.378-.315-.52h.07c-.08-.06-.123-.175-.237-.21.055.157.138.303.246.43h-.106c.08 0 .053.133.15.115l.035-.017zm-2.974.96c.202.52.746.74 1.123 1.11-.35-.395-.724-.766-1.123-1.11zm-.693-2.378c-.158.132.632 1.065.825 1.118-.3-.353-.576-.727-.825-1.118zm-1.28-1.41c.088.071.096.195.158.283a1.155 1.155 0 0 0-.325-.634c.057.321.193.624.395.88 0 0-.22-.493-.228-.546v.018zM120 10.676a6.42 6.42 0 0 0 1.289-.466l-1.29.466zm.122 6.535c.088.158.342.713.57.722-.201-.229-.368-.493-.57-.722zM119 14.99a2.559 2.559 0 0 0-.395-.88c.102.306.234.601.395.88zm.245-2.88c-.193 0-.596 0-.736.15.25-.026.496-.076.736-.15zm-.596 3.612a4.89 4.89 0 0 0-.272-.635c.034.232.128.45.272.635zm5.464 2.316a5.598 5.598 0 0 1-.377-.652c.061.249.192.475.377.652zm-5.262-2.176c.053.209.149.403.28.573a5.293 5.293 0 0 0-.28-.573zm.815 1.762c-.07-.22-.272-.37-.368-.573.053.23.246.388.368.573zm4.693-7.248c.24-.042.464-.149.649-.308l-.65.308zm.333 10.048c0-.105-.15-.317-.21-.378.042.14.114.269.21.378zm-5.403-3.443a1.322 1.322 0 0 0-.263-.432c.088.141.158.3.263.432zm4.008.414c-.052 0 .106.29.15.317.043.026-.15-.317-.15-.317zm-.736-.88l.298.307c0-.158-.184-.229-.298-.308zm-2.632.756s-.14-.308-.175-.255c-.035.053.132.23.175.255zm-1.43-3.196a.484.484 0 0 0-.192-.22.255.255 0 0 0 .193.22zm3.93-5.522c.146-.091.298-.17.456-.238a.928.928 0 0 0-.456.238zm-3.973 3.523c0 .088.377 0 .36 0h-.36zm4.675 4.658s.114.22.14.132c.026-.088-.105-.132-.14-.132zm.272 2.642s-.14-.211-.176-.158c-.035.053.132.158.176.158zm-2.158-3.91s.175.097.158.106c-.018.009-.123-.123-.158-.106zm.965 3.012a.14.14 0 0 0 .149.123.387.387 0 0 1-.167-.176l.018.053zm.149-2.06c.053-.054-.079-.16-.14-.168l.14.167zm.605.114s-.123-.212-.14-.132c-.018.079.105.132.14.132zm-1.184-.696a.263.263 0 0 0-.175-.14c.046.06.106.108.175.14zm-2.675-3.866c-.1 0-.198.022-.29.062a.988.988 0 0 0 .29-.062zm.167 2.131a.22.22 0 0 0-.202-.123 1.2 1.2 0 0 0 .202.123zm1.613 3.875a.387.387 0 0 0 .14.203.52.52 0 0 0-.14-.203zm1.851-1.682a.175.175 0 0 0-.158-.097.28.28 0 0 0 .158.097zm1.623-5.619a.21.21 0 0 0 .166-.061.236.236 0 0 0-.166.061zm.184 8.807a.538.538 0 0 0-.114-.23.485.485 0 0 0 .114.23zm0 .475a.3.3 0 0 0-.08-.176.22.22 0 0 0 .08.176zm-6.14-6.41a.28.28 0 0 0-.14-.098c.028.054.08.09.14.097zm6.587 5.433a.167.167 0 0 0-.114-.132c.02.057.06.104.114.132zm-3.955-7.82a.507.507 0 0 0-.22.061.48.48 0 0 0 .22-.061zm3.718 8.648a.168.168 0 0 0-.061-.115.115.115 0 0 0 .061.115zm-6.078-4.985v-.061.061zm2.491 3.444l-.061-.088c0 .039.025.073.061.088zm-.456.299a.07.07 0 0 0 .079-.053l-.079.053zm.509-9.3h-.097.097zm1.649 9.996c.079.097 0-.106 0 0zm-4.184-4.403c0 .07.053 0 0 0z"/>
        <path fill="#5F296A" d="M114.037 7.49s.094-.482.106-.49c.067.362.102.727.106 1.092.11.297.161.602.153.908-.083-.104 0-.241-.188-.33-.071.121.094.185.058.29a1.948 1.948 0 0 1-.235-.474 3.366 3.366 0 0 1 0-.996M118.366 10c.118 0-.27.259-.353.27-.082.012.236-.176.353-.27M117.33 11a.435.435 0 0 1-.33.235.6.6 0 0 1 .33-.235M119.27 14.153c-.14.106-.223 0-.27-.153a.53.53 0 0 0 .27.153" opacity=".6"/>
        <path fill="#5F296A" d="M119.188 14.13c-.117 0-.18-.044-.188-.13l.188.13M111.058 10.862c.163.126.54.202.663.37 0 .075-.614 0-.672 0 .115 0 1.402.252 1.402.201 0-.05-.467-.168-.533-.193.082-.042.205.059.254 0 .05-.059-.205-.134-.213-.151.147 0 .287.084.434.109h-.164a3.6 3.6 0 0 0 .418.084.416.416 0 0 1-.164 0s.533.05.517.084c-.017.034-.46 0-.517 0a.703.703 0 0 0 .205.084c-.158.01-.317.01-.475 0 0 .05.467.11.508.117-.115.168-1.016-.083-1 0a.128.128 0 0 0 .107 0 1.018 1.018 0 0 1-.688-.083.8.8 0 0 1 .204 0 .672.672 0 0 0-.245 0c.13.117-.254 0-.28 0-.024 0 .386.15.37.16-.017.007-.402-.085-.517-.068.254.168.73.084 1.025.151.057 0 .13.059.23.076.098.016.638-.06.663 0-1.795.302-3.63.257-5.408-.135 0 0 .237 0 .254-.042-.197 0-.369-.126-.566-.15 0 0 .369 0 .328-.076-.04-.076-.967-.11-.95-.32.424.124.861.197 1.302.219.377 0 .82 0 1.18.075-.155-.126-.762.068-.819-.126h.557c-.164-.109-.483-.058-.672-.067-.188-.008-.5-.059-.745-.067-.246-.008-.558 0-.648-.075h.066c-.14 0-.238-.126-.279-.21-.04-.084.058-.068.066-.068a.665.665 0 0 0-.197-.21.168.168 0 0 1 .115 0 1.056 1.056 0 0 1-.14-.15c.146.061.311.046.443-.043-.05 0-.344-.067-.336-.126a.064.064 0 0 1 .082 0c0 .042-.328 0-.189-.1a.088.088 0 0 1 .058 0v-.118c0-.017.262 0 .393 0 .224-.019.448-.019.672 0 .625.177 1.27.275 1.918.294-.123-.151-.074-.26.098-.134 0 .058-.172 0 0 .142.164.106.349.175.54.202h.386c.118.03.233.068.344.117h.107c.016 0 .106.11.18.143.074.034.295.084.246 0a.24.24 0 0 1 0 .067s.065.017.082.017zm-4.048-.655a.16.16 0 0 0-.197 0c.062.03.134.03.197 0zm1.786.957h-.213a.272.272 0 0 0 .213 0zm1.81.454c-.065 0 0 0 0 0z" opacity=".6"/>
        <path fill="#5F296A" d="M109.323 10c.207 0 .396.083.612.055-.08 0 .1.056.1 0 0-.055-.054 0-.072 0-.019 0 .819.13.81.185.117-.102.693.156.837.165a.461.461 0 0 1-.135-.11c.59.23 1.19.427 1.801.59.386.09.75.26 1.072.497.077.084.162.16.252.23.138.059.27.13.396.212.1.396-1.702 0-1.89 0a4.823 4.823 0 0 1-.964-.147c-.198-.065-.775-.48-.9-.277 0-.202-.271-.083-.388-.12-.117-.036-.261-.175-.414-.23.054-.11.54 0 .63.055a21.722 21.722 0 0 0-1.189-.34c0 .009.127.055.118.11-.01.055-1.801-.304-2-.433.302.003.603.03.901.083a3.113 3.113 0 0 0-.9-.147c-.289 0-.163 0-.262.129-.08-.092-.198 0-.297 0 .108-.074 0 0 0-.074.04-.03.095-.03.135 0a.15.15 0 0 1-.08 0l.206-.092h-.279c.045-.074.144 0 .144-.13 0-.128-.423 0-.44-.054h.09A.433.433 0 0 1 107 10.1c.148-.032.299-.05.45-.055.28 0 .568.074.847.101.534.1 1.078.135 1.62.102-.27-.175-.477-.166-.594-.249zm.063.479h-.26c-.019 0 .395.184.476.138.081-.046-.08-.23-.216-.175v.037zm-.54-.295a4.781 4.781 0 0 0-1.26-.055s.648.064.477.157c.072 0 .18-.083.243-.083.18.016.36.016.54 0v-.019zm2.818.203c0-.046 0 .046 0 0zM113.636 20.7c-.126.143-.35.439-.546.506 0-.11.143-.16.206-.236.189-.225.356-.466.501-.718.224-.389.385-.744.645-1.124-.135 0-.072.144-.18.16.117-.346.28-.678.484-.987.072-.102.35-.203.278-.372.098 0-.099.617-.099.667.06-.253.142-.501.242-.743.188-.11 0 .346 0 .414.193-.32.33-.669.403-1.03.242.092.063.312 0 .48.215.052.34-.599.43-.717-.35 1.419-.734 3.176-1.791 4.324l.09-.21c-.189.134-.251.337-.475.43l-.08.05c-.108 0-.117-.042-.216 0 .175-.135.315-.305.412-.498-.16.06-.358.355-.483.465-.161.138-.314.285-.457.439 0-.16.6-.845.35-.845a.604.604 0 0 0 .33-.354m.126-.16a.072.072 0 0 0 0 .075s.054-.101 0-.076m1.191-1.436s-.134.119-.09.17a1.35 1.35 0 0 0 .153-.313.148.148 0 0 0-.063.143m-.331-.084c-.18.174-.298.395-.34.633.112-.122.211-.255.295-.397a.994.994 0 0 0 .045-.236m-.815 1.292c.071 0 .206-.245.215-.295l-.215.295m1.236-1.503c-.063.11.116-.06 0 0M114.665 13.369s.307.051.251.06c-.056.008 0-.112.065-.043.065.068-.065.171 0 .231s-.102 0-.111 0c-.01 0 .111.103.111.198a.809.809 0 0 1-.111.343c0 .068-.196.162-.252.24-.055.077-.148.385-.307.446a.44.44 0 0 1 .121-.232.502.502 0 0 0-.204.137c.126-.199.238-.405.335-.617-.186.051-.745 1.209-.93 1.123 0-.094.185-.189.195-.283a8.774 8.774 0 0 0-.633 1.072c-.205.36-.358.744-.456 1.14.242.155-.232.73-.38.97-.15.24-.317.48-.447.728 0 .086-.382.66-.307.763.106-.21.233-.412.381-.6a7.527 7.527 0 0 1-.512 1.029c.112.129-.316.857-.474.926a.917.917 0 0 0 .167-.489c-.056.072-.103.15-.14.232-.055-.155.206-.558.261-.695.056-.137.13-.463.224-.694.158-.403.381-.738.548-1.106v-.198c0-.077.093-.171.121-.257.113-.21.21-.428.289-.652 0-.12-.056-.351-.112-.12a.704.704 0 0 1 .112-.223c-.196 0-.512.858-.382.73-.075.146-.16.29-.25.428 0 0 0 .24-.178.163l.41-.96c.083-.189.167-.695.362-.798v.146c.168-.163-.111-.249.13-.446a1.684 1.684 0 0 0 0 .189c0-.077.27-.395.233-.489-.037-.094-.111.257-.214.3a3.413 3.413 0 0 1 1.024-1.466c.204-.215.65-.583.641-.858-.083 0-.26.18-.307.223.186-.265.475-.454.67-.711a.618.618 0 0 0-.316.197.507.507 0 0 1 .446-.446c-.055.111 0 .214 0 .257 0 .043-.4.395-.362.429.111-.112.27-.189.344-.326m-3.265 6.611c.056-.077 0 0 0 0m1.507-4.604a.563.563 0 0 0-.196.283c.056-.112.196-.266.196-.283m-.196 1.011c.112 0 .224-.248.121-.231-.102.017-.158.231-.167.266a.07.07 0 0 0 .056 0m-1.275 3.524s.15-.146.093-.18c-.055-.035-.093.154-.093.18m-.083.137c-.084.086 0 .129 0 0M116.483 2.006c.12.293.202.611.24.94.12.464.181.95.184 1.44.128 0 0-.687.085-.828.01.238.01.477 0 .715 0 .094 0 .47-.056.536a.372.372 0 0 0 0-.15c0 .413-.177.808-.227 1.212 0 .207 0 .442-.056.65 0 .065-.071.112-.05.065-.087.449-.153.904-.198 1.364-.057.235-.453 1.975-.312 2.05-.205 0 0-.846-.05-.94.003.039.015.075.036.103 0-.254.085-.48.07-.734a3.78 3.78 0 0 1-.042-.554c0-.094.085-.254.1-.377.014-.122 0-.451.063-.667l.05.056c.102-.5.177-1.01.226-1.523.092-.45.166-.904.22-1.364a3.24 3.24 0 0 0-.24-1.241c0-.066-.1-.076-.114-.113-.014-.038.042-.075 0-.141a3.355 3.355 0 0 1-.12-.47c-.22-.048.084-.17 0-.32l.162.056c-.063-.14-.163-.291-.212-.423a1.786 1.786 0 0 0 0-.17c0-.046-.113-.084-.12-.122-.008-.037.19-.056.198-.056-.114.066.453.856.354.94-.1.085-.085-.065-.078 0 .007.066.092.18.078.31-.014.132-.191-.357-.191-.366-.01.05.012.1.05.113M115.12 6.34a.043.043 0 0 1-.077 0 .975.975 0 0 0-.043.11 4.688 4.688 0 0 0 0-.858c0-.309.06-.455.095-.755.058-.264.13-.525.216-.781 0-.06.077-.67.095-.678.163-.043-.07 1.287-.07 1.356.104-.292.13-.6.208-.858.007.184.027.368.06.549.095-.163 0-.687-.052-.807s-.052-.626 0-.618c.063.369.092.742.087 1.116l.069-.069c0 .601-.104 1.193-.156 1.794.147-.412.138-.858.31-1.27.113.077-.06.369 0 .49.053 0 .053-.121.096-.164.155.094-.181.378 0 .36a3.025 3.025 0 0 1-.207 1.03h.051c.06 0-.06.49-.077.516-.017.025 0-.19 0-.284a1.829 1.829 0 0 0-.233 1.15c-.03.444-.03.888 0 1.331a3.844 3.844 0 0 1-.233-1.51c.105-.468.186-.941.241-1.417-.06.112-.077.55-.172.61.043 0 .19-1.777.224-1.777.035 0-.052.18-.06.206a3.612 3.612 0 0 0 0-.507c0 .163-.104.31-.112.438-.009.129 0 .223 0 .343 0 .584-.164 1.176-.199 1.769-.146-.164-.077-.507-.06-.704 0 0 0-.455-.06-.318 0 0 .086.292.06.215m0-.455a.043.043 0 0 0 0 .077.111.111 0 0 0 0-.077m.431-1.365c-.069-.077 0 .069 0 0M114.93 16.366c-.209.326-.272.717-.5 1.026a4.98 4.98 0 0 1-.58.936c0-.081.091-.187.091-.26 0-.074-.19.252-.172.244.018-.008 0-.065 0-.098a.66.66 0 0 0-.2.415c.109 0 .19-.268.272-.334a4.257 4.257 0 0 1-.744 1.303c-.145.252-.263.537-.399.814 0 .081-.163.448-.254.48-.217-.366.717-.952.445-1.262a1.96 1.96 0 0 0-.363.684.674.674 0 0 1 .127-.146c0 .187-.345.96-.653.814.2-.155.245-.562.38-.814.174-.217.323-.45.445-.692.046-.13 0-.163.064-.334.063-.17.09-.22.172-.228.082-.008.046.195 0 .18v-.05s-.172.204-.145.236c.118-.138 0 .106.064.114.063.008.154-.154.172-.195a.17.17 0 0 1-.118 0c.317-.342.363-.863.662-1.205 0-.049.163-.081.227-.17.063-.09.154-.473.354-.644-.073.236.09 0 0-.065-.091-.065-.218.293-.236.31a.454.454 0 0 1-.272.065s-.2.325-.2.366c.07-.219.18-.425.327-.61 0 0 0 .08.072 0 .073-.082.19-.253.145-.277-.045-.025-.145.162-.2.105-.054-.057 0-.203.119-.22.118-.016-.073.082-.055.14.018.056.2-.31.055-.14-.055-.073.081-.097.054-.162-.027-.065-.335.236-.335.236s.199-.39.263-.383a.11.11 0 0 0 0 .09c.054 0 .117-.106.108-.138.1.09.118-.057.19-.082.219.228-.09.082-.144.326.208-.041 0 .203 0 .236.19-.171.245-.423.426-.586.181-.163.118 0 .19-.074.073-.073.1-.227.182-.317.109.106-.082.285-.036.366zm-1.696 2.784s-.11.09-.064.098a.408.408 0 0 1 .064-.098zm1.079-2.067c.084-.096.151-.203.2-.318a.868.868 0 0 0-.2.318zm-1.07 2.19c-.4.374-.19.471 0 0zm1.378-2.565s.163-.211.136-.244c-.027-.033-.154.195-.136.244zm-1.188 2.141s.154-.171.09-.171c-.063 0-.108.13-.09.171zm-1.043 1.628a.19.19 0 0 0-.054.146.146.146 0 0 0 .054-.146zm-.109.195c-.064.02-.1.08-.081.139l.081-.139zm1.914-3.573c.043-.015.067-.058.054-.098l-.054.098z" opacity=".6"/>
        <path fill="#5F296A" d="M113.609 14.139c.086-.053.177-.1.273-.139 0 0-.155.162-.182.185.127 0 .182-.139.3-.177-.146.123-.446.77-.573.77a.16.16 0 0 0 0-.184c-.068.1-.129.203-.183.308-.09.116-.209.216-.3.332-.19.239-.344.498-.455.77-.1.24-.182.494-.273.726 0 .077-.046.247-.191.27-.146.023.4-1.126.373-1.234 0 0-.082.316-.155.293v-.046c-.02.065-.044.13-.073.192-.2-.23.547-1.095.71-1.287.164-.193.328-.424.52-.61 0 0 .063-.084.108-.115.046-.031.055 0 .064 0l.073-.07m-1.156 1.543l.064-.039c.002.05-.017.1-.055.139.064 0 .182-.432.146-.208.1-.131.182-.2.073-.34a.24.24 0 0 1-.064.27c0-.123-.155.162-.164.178m.637-.772c.064 0 .228-.431.264-.439.037-.008-.31.37-.328.424.164-.108.055 0 0 .054-.054.054 0 0 0-.039m-.154.093a.524.524 0 0 0-.191.193c.054-.039.273-.178.245-.247l-.054.054m.528-.578c0 .1.063-.039 0 0M114.235 5.719c.051.307.051.618 0 .925 0 .07-.094.432-.164.342-.071-.09 0-.463 0-.594v-.894a3.797 3.797 0 0 1-.071-.694c0-.18 0-.673.188-.804-.05.293-.05.591 0 .885.094.281-.047.623.047.834zM116.037 9.968a2.082 2.082 0 0 1 0-.778c0-.114.117-.083.153-.177.035-.093 0-.093 0-.166.153-.519.106-1.421.47-1.847.165.27-.223 1.173-.282 1.494-.019.352-.082.7-.188 1.038a1.403 1.403 0 0 0-.083-.187.571.571 0 0 0 .094.499c0-.094-.07-.229 0-.301.165.114 0 .311.083.456-.118.01-.188-.093-.247-.03zM114.012 17.06c.018-.355.18-.686.447-.919v.212c.2 0 .176-.364.341-.353.165.012-.553 1-.553 1.06 0 .058.13-.271 0-.236-.13.035-.13.165-.247.247M113.73 16.398s-.154.09-.2.066c-.048-.024.117-.09.105-.115-.259.043-.4.537-.635.651.118-.18.494-.958.894-1-.051.08-.095.16-.13.241a.217.217 0 0 1-.035.157zM114.27 9.146c.21.263.335.555.365.854A4.309 4.309 0 0 1 114 9c.141.057.082.179.2.244l.07-.098zM113.212 20.894L113 21c0-.057.706-1.048.882-.998-.047.212-.8.7-.67.892z" opacity=".6"/>
        <path fill="#5F296A" d="M117.057 1.506c.07.165-.07.4.153.482a4.87 4.87 0 0 0-.083-.706h-.117c-.059 0 .165-.223.176-.282.094.36.122.735.083 1.106a.4.4 0 0 1-.118-.13l-.094.165c0-.235-.07-.459 0-.694" opacity=".5"/>
        <path fill="#5F296A" d="M114.965 16.137l-.46.434c-.023.024-.352.474-.505.425.094-.16.706-.996 1-.996 0 .016-.141.137-.035.137zM108 10.141c-.183 0-.176.094-.29.118a1.391 1.391 0 0 1-.71-.106.254.254 0 0 1 .275 0l-.092-.153c.17.101.347.176.527.224 0 0 .221-.283.29-.083zM108.225 8c.147.176.682 0 .775.341-.085.059-.395-.094-.488-.117a1.025 1.025 0 0 1-.512-.2.606.606 0 0 0 .225-.024zM114.03 8a4.178 4.178 0 0 1 0-1 2.4 2.4 0 0 1 0 1M108.882 10.234c-.306.01-.61-.058-.882-.2.07-.082.87 0 .882.071l-.07.07.07.06zM112.01 20.706c.176 0 .235-.612.376-.67a.33.33 0 0 1 0 .223.306.306 0 0 0 .153-.259c0 .141-.224.835-.47.812a.07.07 0 0 1-.06-.106zM114.228 10c-.353-.052-.188-1-.2-1 .189.06 0 .87.2 1M114.894 12.08c-.294.153-.6 0-.894 0 .288-.107.606-.107.894 0M115.155 16.588c0-.07-.031-.07-.094 0-.2-.27.141-.564.33-.588-.071.188-.154.388-.236.588zM116.046 6.733c0-.141 0-.659.177-.73.176-.07 0 .93-.165.977-.164.047.083-.176-.012-.247zM116.019 6c-.106-.192.27-.833.353-1 .014.35-.108.696-.353 1z" opacity=".6"/>
        <path fill="#5F296A" d="M116 1c.118.07.565 1.012.412 1.163-.153.151-.377-1.035-.412-1.163M115.259 0a.447.447 0 0 0-.106.259.859.859 0 0 1 .235-.083c-.07.142-.212.236-.282.377-.177-.2 0 0 .059-.188a.212.212 0 0 0-.165 0c.094-.07 0-.341 0-.353 0-.012.082.047.259-.012z" opacity=".5"/>
        <path fill="#5F296A" d="M115.152 3c0 .294-.094.565-.13.859a1.318 1.318 0 0 1 .13-.859M113.459 18c-.07.34-.228.657-.459.918.068-.342.226-.659.459-.918zM116.114 7c0 .118.094 1.024 0 1.059-.094.035-.2-1.035 0-1.059M116.065 5.165l.083-.165c.07.274.032.565-.106.812-.094 0 0-.588 0-.647M116.029 10.534v.095c-.094 0 .07-.553.094-.624.023-.07.094.624 0 .6-.094-.023 0-.153 0-.188a.153.153 0 0 0 0 .117M114.154 8.148a.6.6 0 0 1 .223.353c-.165-.059-.106-.212-.212-.282-.106-.07 0 .153 0 .235 0 .083-.176-.388-.164-.447.011-.059.023.27.153.141zM115.094 4.812l-.094.176c.024-.335.087-.667.188-.988.07.024-.094.753-.094.812z" opacity=".6"/>
        <path fill="#5F296A" d="M116.224 10c-.01.322-.087.638-.224.93 0 0 .118-.93.224-.93zM114 20.58c0-.118.153-.518.306-.576.153-.06-.177.623-.306.576M113 18.624c.047-.224.14-.437.27-.624a1.988 1.988 0 0 0-.082.33c.141 0-.059.329-.188.294zM112.254 18c.083.212-.129.506-.235.659-.094-.059.188-.612.235-.659zM114.282 2a2.2 2.2 0 0 1-.282.976 4.07 4.07 0 0 1 .282-.976zM115.13 16.53c0-.11-.044-.154-.13-.13.153-.118.235-.294.4-.4a2.424 2.424 0 0 1-.27.53M112.282 20a.365.365 0 0 1-.282.447c0-.176.212-.282.282-.447M115 8c.105.256.105.544 0 .8V8" opacity=".6"/>
        <path fill="#5F296A" d="M116.115 10v.412c0-.06 0-.177-.07.059-.048-.118-.095-.471.07-.471zM114 12.076c.259-.236.365.153.33.153-.036 0-.295-.094-.33-.153M112 21.71s.106-.776.235-.705c.13.07-.211.67-.235.705zM114.38 10.248c-.071 0-.53-.117-.33-.212.2-.094.259 0 .33.212M108 10.006c.319-.017.639.003.953.059a5 5 0 0 1-.953-.059M116.07 14.115l-.07-.106c.541-.07.353.317.07.106M114 18.8c0-.106.235-.765.4-.8a1.659 1.659 0 0 1-.4.8M114 16.447s.259-.53.318-.436c.058.094-.247.4-.318.436M117.106 3c.05.244.013.498-.106.718l.106-.718M112.142 18.506s-.13.176-.142.13c-.011-.048.224-.53.295-.636 0 .13-.212.33-.153.506zM114.01 17.635c-.06-.14.164-.506.223-.635.012.118-.082.588-.223.635z" opacity=".6"/>
        <path fill="#5F296A" d="M116.17 1.632c0-.094-.235-.529-.153-.623.083-.094.153.588.153.623" opacity=".5"/>
        <path fill="#5F296A" d="M114.212 16.224a.153.153 0 0 1-.212.094.718.718 0 0 0 .188-.318c.141 0 0 .224 0 .212M112 19.53c0-.059.13-.553.2-.53.07.024-.118.554-.2.53M115.235 14a.518.518 0 0 1-.235.424 2.67 2.67 0 0 1 .235-.424zM114 15.376c0-.176.188-.258.294-.376 0 .059-.176.424-.294.376M108.388 10.082s-.376.07-.388 0c-.012-.071.377-.142.388 0zM112.188 18.121a.824.824 0 0 0-.188.27s.082-.482.2-.376a.141.141 0 0 1-.012.106zM114.565 12.022c-.189 0-.377.094-.565 0 .187-.03.378-.03.565 0" opacity=".6"/>
        <path fill="#5F296A" d="M116 2c.067.173.107.356.118.541-.118-.106-.106-.4-.118-.541" opacity=".5"/>
        <path fill="#5F296A" d="M114 7.576c.007-.193.03-.386.07-.576a.988.988 0 0 1-.07.576zM112 21.3c0-.07 0-.376.118-.282.117.094-.024.259-.118.282zM116.087 3a.918.918 0 0 1-.083.47.894.894 0 0 1 .083-.47zM112.094 20.005a.518.518 0 0 1-.094.389s0-.447.094-.389M110.153 10.107L110 10a.67.67 0 0 1 .4.106h-.247zM114.094 8a.482.482 0 0 1-.094.376c.106-.082 0-.247.094-.376zM115.04 5.459a.682.682 0 0 1 0-.459c.017.152.017.306 0 .459M113.094 18s.094.353 0 .282v-.094l-.094.06a.647.647 0 0 1 .094-.248zM114.224 15a.494.494 0 0 1-.224.341.518.518 0 0 1 .224-.341zM113.138 19.016c.141-.106 0 .364-.106.211-.106-.152.082-.176.106-.211M115.016 9a.753.753 0 0 1 0 .482c-.021-.16-.021-.322 0-.482M115.021 10c.039.147.039.3 0 .447a1.176 1.176 0 0 1 0-.447M112.047 18.259c-.106-.094 0-.177 0-.259a.259.259 0 0 1 0 .259M114.077 5c0 .153-.07.294-.07.435a.776.776 0 0 1 .07-.435z" opacity=".6"/>
        <path fill="#5F296A" d="M115.107 2c0 .153-.106.282-.094.435a.53.53 0 0 1 .094-.435z" opacity=".5"/>
        <path fill="#5F296A" d="M116.026 3.353c-.059-.118 0-.235 0-.353a.494.494 0 0 1 0 .353zM114.235 18.036l-.235.318c.059-.094.13-.47.235-.318zM112 20.341c0-.153.094-.223.153-.341a.882.882 0 0 1-.153.341zM111.141 22c.094.176-.141.259-.141.224.039-.08.086-.155.141-.224zM109.106 11.095l-.106-.07a.682.682 0 0 1 .365 0c-.083.117-.189-.024-.26.07zM113 18.259a.365.365 0 0 1 .153-.259c.012.13-.024.235-.153.259z" opacity=".6"/>
        <path fill="#5F296A" d="M114.153 1.062a.33.33 0 0 1-.153.188v-.247a.153.153 0 0 1 .153.059z" opacity=".5"/>
        <path fill="#5F296A" d="M108.459 10.056a3.059 3.059 0 0 1-.459 0c.118-.035.4-.106.459 0zM112 18.33c.05-.12.117-.23.2-.33a.565.565 0 0 1-.2.33zM116.106 18a.694.694 0 0 1-.106.306s0-.306.106-.306M112.13 19a.553.553 0 0 1-.129.282.318.318 0 0 1 .13-.282M115 11.33a.988.988 0 0 1 .141-.33.494.494 0 0 1-.141.33zM116.082 10.341H116a.612.612 0 0 1 .118-.341c.106.059-.036.306-.036.341zM114.062 8a.47.47 0 0 1 0 .224c-.094.082-.07-.177 0-.224M115.111 10c.009.11.009.22 0 .33-.117-.095-.176-.271 0-.33zM116.002 16.247a.247.247 0 0 1 .13-.247c-.002.098-.05.19-.13.247M114.009 3.33a.459.459 0 0 1 .059-.33c0 .112-.02.224-.06.33z" opacity=".6"/>
        <path fill="#5F296A" d="M112 19.197s0-.247.118-.188c.117.059-.083.177-.118.188zM116.043 10v.318a.318.318 0 0 1 0-.318M109 10.047a.353.353 0 0 1 .353 0H109M115.042 8a.835.835 0 0 1 0 .212c-.094.07 0-.2 0-.212M114.153 16a.93.93 0 0 1-.153.259.282.282 0 0 1 .153-.259z" opacity=".6"/>
        <path fill="#5F296A" d="M115 1.082l.247-.082s-.235.235-.247.082z" opacity=".5"/>
        <path fill="#5F296A" d="M114 15.224a.33.33 0 0 1 .224-.224.812.812 0 0 1-.224.224M116.2 14.176A.376.376 0 0 1 116 14c.091.023.165.09.2.176" opacity=".6"/>
        <path fill="#5F296A" d="M115.082 1c.055.11.028.184-.082.224l.082-.224" opacity=".5"/>
        <path fill="#5F296A" d="M108.27 8.024a.4.4 0 0 1-.27 0 .388.388 0 0 1 .27 0M116.017 8.176a.235.235 0 0 1 0-.176c.086 0 .086.059 0 .176M115 17.235a.282.282 0 0 1 .106-.235.27.27 0 0 1-.106.235M116 7.247V7v.247M110.294 10.07c-.106 0-.2 0-.294-.059a.341.341 0 0 1 .294.06zM114.008 8.259A.259.259 0 0 1 114.09 8a.518.518 0 0 1-.082.259zM112.119 19c.059.094 0 .141-.083.188-.082.047-.011-.164.083-.188zM114.165 16a.506.506 0 0 1-.165.224.294.294 0 0 1 .165-.224M115.072 7.176l-.059.083a.647.647 0 0 1 0-.259.341.341 0 0 1 .059.176z" opacity=".6"/>
        <path fill="#5F296A" d="M108.235 8.038H108a.2.2 0 0 1 .235 0zM112.001 21.224a.235.235 0 0 1 .106-.224.424.424 0 0 1-.106.224M112.04 18.176a.118.118 0 0 1 0-.176.165.165 0 0 1 0 .176M114.02 5v.212c0 .047-.046-.153 0-.212zM115.002 18.2a.212.212 0 0 1 .083-.2s-.012.2-.083.2zM114 20.186s.106-.235.118-.177c.011.06-.036.153-.118.177zM114.089 19c0 .082 0 .141-.083.2a.176.176 0 0 1 .083-.2zM111 20.176V20c.153.07.082.165 0 .176z" opacity=".6"/>
        <path fill="#5F296A" d="M112 21.188a.212.212 0 0 1 .083-.188l-.082.188M114.022 5a.247.247 0 0 1 0 .212.27.27 0 0 1 0-.212zM116.07 5a.118.118 0 0 1 0 .176c-.094-.117-.094-.176 0-.176z" opacity=".6"/>
        <path fill="#5F296A" d="M114.024 5.212a.247.247 0 0 1 0-.212.212.212 0 0 1 0 .212z" opacity=".6"/>
        <path fill="#5F296A" d="M117.024 3.188a.2.2 0 0 1 0-.188.141.141 0 0 1 0 .188" opacity=".5"/>
        <path fill="#5F296A" d="M113.176 12.037a.188.188 0 0 1-.176 0c0-.083.165 0 .176 0M117.03 3a.247.247 0 0 1 0 .247.27.27 0 0 1 0-.247z" opacity=".6"/>
        <path fill="#5F296A" d="M114.015 2.188a.13.13 0 0 1 .094-.188.235.235 0 0 1-.094.188z" opacity=".5"/>
        <path fill="#5F296A" d="M114.123 2s0 .2-.094.118c-.094-.083.07-.106.094-.118z" opacity=".5"/>
        <path fill="#5F296A" d="M112.002 20.165a.165.165 0 0 1 .071-.165.2.2 0 0 1-.07.165zM113 19.118c0-.079.027-.118.082-.118a.235.235 0 0 1-.082.118" opacity=".6"/>
        <path fill="#5F296A" d="M112.088 20a.212.212 0 0 1-.083.2c-.023-.082.036-.141.083-.2zM107.235 10a.306.306 0 0 1-.235 0h.235M112 12.028a.153.153 0 0 1 .176 0 .388.388 0 0 1-.176 0M116 7.186v-.177c0-.058.094.177 0 .177z" opacity=".6"/>
        <path fill="#5F296A" d="M116.02 7a.282.282 0 0 1 0 .235s-.046-.235 0-.235zM112.002 12.019a.165.165 0 0 1 .153 0c0 .094-.176.059-.153 0M115.025 17.153a.13.13 0 0 1 0-.153.13.13 0 0 1 0 .153zM112.099 20a.247.247 0 0 1-.094.165c-.024-.07.047-.13.094-.165z" opacity=".6"/>
        <path fill="#5F296A" d="M116.028 3a.353.353 0 0 1 0 .224.235.235 0 0 1 0-.224zM115.113 1c0 .106-.07 0-.106.082-.035.083.07-.07.106-.082z" opacity=".5"/>
        <path fill="#5F296A" d="M115 14.047c0-.063.02-.063.059 0 0 0 0 .07-.059 0M112 18.153a.365.365 0 0 1 .07-.153c.024.094.024.106-.07.153zM114 18.157s0-.188.07-.153c.01.06-.018.121-.07.153zM117.026 4a.2.2 0 0 1 0 .176.165.165 0 0 1 0-.176zM115 6.183s0-.224.082-.176c.083.047 0 .2-.082.176M110 10.014a.188.188 0 0 1 .141 0s-.13.059-.141 0z" opacity=".6"/>
        <path fill="#5F296A" d="M115 14.153c0-.059 0-.118.07-.153a.188.188 0 0 1-.07.153zM115.076 11c0 .07 0 .106-.071.153a.13.13 0 0 1 .07-.153zM114 14.118c0-.06 0-.094.082-.118a.141.141 0 0 1-.082.118zM107 10.017c.165-.082 0 .165 0 0M115.026 16a.13.13 0 0 1 0 .13.094.094 0 0 1 0-.13zM114 16.118l.059-.118a.082.082 0 0 1-.059.118M108 12.014a.188.188 0 0 1 .141 0 .13.13 0 0 1-.141 0zM115.016 17.106a.094.094 0 0 1 0-.106.082.082 0 0 1 0 .106z" opacity=".6"/>
        <path fill="#5F296A" d="M114.025 2v.118a.082.082 0 0 1 0-.118" opacity=".5"/>
        <path fill="#5F296A" d="M111 22.082c0-.045.037-.082.082-.082 0 0-.058.082-.082.082zM107.153 12.013c0 .07-.051.07-.153 0a.235.235 0 0 1 .153 0zM114.07 18l-.07.106a.106.106 0 0 1 .07-.106M116.018 10v.118a.106.106 0 0 1 0-.118zM114.083 16s0 .165-.082.106a.094.094 0 0 1 .082-.106" opacity=".6"/>
        <path fill="#5F296A" d="M115 2.118V2a.082.082 0 0 1 0 .118z" opacity=".5"/>
        <path fill="#5F296A" d="M112 20.106s0-.094.07-.106a.106.106 0 0 1-.07.106z" opacity=".6"/>
        <path fill="#5F296A" d="M116 3.141V3c.031.042.031.1 0 .141z" opacity=".5"/>
        <path fill="#5F296A" d="M115.052 11c0 .106-.117 0 0 0M114 8v0M113 20.017c0 .176 0-.083 0 0M114 19.123v-.118c0-.035.07.118 0 .118z" opacity=".6"/>
        <path fill="#5F296A" d="M117.055 3.052s.13-.117 0 0c-.13.118.012.07 0 0zM117.031 3.017c-.07.106 0-.07 0 0" opacity=".5"/>
        <path fill="#5F296A" d="M114.026 18c0 .07-.059 0 0 0M107.089 10.042c-.2 0 0-.094 0 0M113.037 21c0 .082-.083 0 0 0M108 12h.106a.118.118 0 0 1-.106 0zM111.033 10.042c-.106-.094.083 0 0 0M115 16.067v-.06c0 .036.024.048 0 .06zM114 18.094l.07-.094a.094.094 0 0 1-.07.094M114 5.07V5s.059.059 0 .07zM115 17a.07.07 0 0 1 0 .082V17z" opacity=".6"/>
        <path fill="#5F296A" d="M115.015 17v.094a.082.082 0 0 1 0-.094zM112.008 20v.059a.059.059 0 0 1 0-.059zM112.003 22v.07a.2.2 0 0 1 0-.07zM107 10c.176 0 0 .082 0 0M107.106 12.016a.094.094 0 0 1-.106 0 .094.094 0 0 1 .106 0z" opacity=".6"/>
        <path fill="#5F296A" d="M116 .017a.059.059 0 0 1 .082 0H116z" opacity=".5"/>
        <path fill="#5F296A" d="M114.053 16c-.07.165-.07 0 0 0M114.07 18s0 .094-.07.082a.094.094 0 0 1 .07-.082z" opacity=".6"/>
        <path fill="#5F296A" d="M114.016 18.106a.094.094 0 0 1 0-.106.094.094 0 0 1 0 .106zM115.005 17.042s0 .094 0 0-.012 0 0 0zM110 10.017a.059.059 0 0 1 .082 0H110zM116.026 8.042c-.059 0 0-.094 0 0" opacity=".6"/>
        <path fill="#5F296A" d="M114 2.094V2a.059.059 0 0 1 0 .094z" opacity=".5"/>
        <path fill="#5F296A" d="M114.01 4s-.023.012 0 0zM112 18.044c0-.059 0-.059 0 0s.012.012 0 0zM108.082 8.017H108a.059.059 0 0 1 .082 0zM112 19c0 .106 0 0 0 0M113.005 18s-.012.024 0 0z" opacity=".6"/>
        <path fill="#5F296A" d="M114 2.047c0-.106 0 0 0 0M117 1c0 .153 0 0 0 0" opacity=".5"/>
        <path fill="#5F296A" d="M114 18s0 .024 0 0zM113.005 19s-.012.024 0 0zM116 16.082V16v.082zM116 6.058c0-.13.094 0 0 0M111.052 10.026c-.117 0 0-.059 0 0M116 7c0 .165 0 0 0 0M112 21.01s.024-.023 0 0z" opacity=".6"/>
        <path fill="#5F296A" d="M111 10.008a.106.106 0 0 1 .082 0H111zM107.037 10.031c-.083 0 0-.07 0 0M114.037 16c-.083.13 0 0 0 0M108.016 12s-.036 0 0 0zM114.005 14s-.012 0 0 0zM114 16.059V16s.035.059 0 .059zM116 11c0 .094 0 0 0 0M116.005 10s-.012 0 0 0zM107 12s.012 0 0 0zM108.07 12H108h.07zM110.058 11.047c-.13-.106 0 0 0 0M114 19.01s0-.023 0 0zM110 10s.012.012 0 0zM107 10.031c0-.07.082 0 0 0M115 6.037c0-.083 0 0 0 0M115 6s0 .012 0 0zM117 3s0 .012 0 0zM116.005 5c.016.02.016.05 0 .07 0 0-.012-.046 0-.07z" opacity=".6"/>
        <path fill="#5F296A" d="M117 3.005s0-.012 0 0z" opacity=".5"/>
        <path fill="#5F296A" d="M115 14.01s.035-.023 0 0zM116 10.005s0-.012 0 0zM114 18s.012 0 0 0zM115.005 17s-.012 0 0 0zM116 10.037c0-.083 0 0 0 0M109 10s0 .024 0 0zM114 16s.012 0 0 0zM114 16v.012V16M116.005 7s-.012 0 0 0zM114.005 18.005s-.012-.012 0 0zM111.005 20s-.012 0 0 0zM112.01 20s-.023.012 0 0zM114.005 6s-.012.012 0 0zM116 5s.024 0 0 0zM116.005 5s-.012 0 0 0zM114.031 18s-.07 0 0 0zM114 5.005s0-.012 0 0zM121.355 18.307c.08.026.142.094.166.182.1-.219-.589-.91-.713-1.075a5.076 5.076 0 0 1-.83-1.384c.133.11 1.31 2.085 1.452 1.976a3.443 3.443 0 0 1-.481-.646 3.439 3.439 0 0 1-.423-.638.062.062 0 0 1 .083 0c-.058-.164 0 0 .09 0-.09.192.366.665.523.838a2.5 2.5 0 0 0-.48-.728c.537.453 1.047.946 1.525 1.475a5.1 5.1 0 0 0-1.053-1.202c-.257-.255-.83-.638-.962-.965.2 0 .68.573.83.71.314.318.646.573.945.91.318.373.656.725 1.011 1.056 0 0 .274.365.299.355.025-.009-1.708-1.82-1.659-1.939a.118.118 0 0 1 .125.046c0-.273-.614-.474-.689-.747.125 0 .689.592.788.72.1.127.091.19.166.282.075.09.348.346.498.528 0-.173-.216-.374-.299-.528a2.12 2.12 0 0 0-.348-.483l-.456-.464s-.083-.091-.141-.146a7.186 7.186 0 0 1-1.617-1.502c.023.066.05.13.083.191-.083 0-.224-.246-.349-.264 0 .073.374.564.307.62a4.504 4.504 0 0 1-.423-.656 2.354 2.354 0 0 1-.257-.428c0-.1 0-.328-.066-.401.1 0 .34.173.423.228.249.164.497.318.73.5.505.383.978.792 1.459 1.22.79.58 1.45 1.35 1.932 2.25a.54.54 0 0 0-.058-.165c.29.182.257.72.514.975a.334.334 0 0 1-.116-.091c0 .19-.133 0-.216-.073.062.105.112.218.15.337-.133-.155-.075-.082-.075 0-.133 0-.133-.255-.257-.055.166 0 .15.2 0 .2s-.307-.164-.415-.218c-.107-.055.141.828.224.746.083-.082-.547-.5-.564-.546a.788.788 0 0 0 0-.291 2.039 2.039 0 0 0-.381-.51c-.15-.164-.29-.346-.448-.492-.157-.146-.406-.382-.48-.373.31.373.6.765.87 1.174.345.375.672.77.978 1.184h-.224c-.008 0-.09 0-.066-.164.02.015.047.015.066 0 0-.09-.356-.419-.373-.437l.058.155c-.116 0-.058-.11-.149 0 .091-.082-.771-.792-.73-.91.042-.119.125.172.166.154.042-.018-.44-.537-.514-.464.05.088.109.17.174.246v-.046c.084.114.153.24.208.373a1.961 1.961 0 0 1-.2-.2c0 .055.49.656.481.665-.008.009-.746-.965-.812-1.065zm2.156.91s.083.082.066.082a.068.068 0 0 0-.012-.062.055.055 0 0 0-.054-.02zm-4.22-4.762a.264.264 0 0 0-.167-.191c.173.22.377.408.606.555.288.248.565.513.829.793.297.273.61.526.937.755.108.082.638.638.754.62.117-.019-.398-.429-.44-.465l-.281-.237c-.091-.082-.332-.2-.133-.19 0-.056-.083 0-.116-.101l-.166-.273c.183.064.25.255.456.31a5.725 5.725 0 0 0-1.932-1.467c.094.072.177.158.25.255-.183-.082-.349-.382-.556-.391l-.042.027zm3.15 2.941c.075.207.202.387.365.519.14.155.307.464.49.555 0-.255-.656-.91-.83-1.074h-.025zm.639 1.967a.137.137 0 0 0-.025-.1.113.113 0 0 0-.083-.046l.108.146zm-.2-.255c.011.032.036.056.067.063-.004-.036-.033-.064-.066-.063zM121.504 12.086c-.664.243-1.341.443-2.028.6a8.25 8.25 0 0 0 1.53-.305.495.495 0 0 1-.362.162c.08.037.173.037.253 0-.081.229-.905.267-1.05.333-.145.067-.362.2-.607.067a.33.33 0 0 0 .209-.181c-.48.077-.969.077-1.449 0 .208 0 .416-.057.616-.114h-.471c.292-.116.596-.192.905-.229a3.22 3.22 0 0 1 1.014-.238 2.411 2.411 0 0 1-.57.162c.282-.01.561-.072.824-.181.291-.046.577-.125.851-.238a.31.31 0 0 0-.145 0 2.29 2.29 0 0 1 .417-.181.16.16 0 0 1-.09.114c.365-.027.723-.12 1.058-.276.046 0 .236-.495.281-.238l.226-.086a.284.284 0 0 1-.054.143 1.14 1.14 0 0 0 .28-.133c-.443 0 0 0 .1-.134-.21.012-.416.053-.615.124l-.218.172c-.271 0-.56.2-.86.162.39-.21.136-.19-.145-.077-.28.115-.842.42-1.014.277.438-.103.866-.25 1.277-.439a3.842 3.842 0 0 0-.824.22c-.054 0-.67.219-.616.247h.109s.072.172.063.114a5.51 5.51 0 0 1-2.29.458 13.764 13.764 0 0 0 1.71-.362c-.575.132-1.159.218-1.747.257.209-.22.399-.2.652-.257.254-.058.544-.181.824-.267.666-.185 1.32-.417 1.956-.695 1.05-.457 2.055-1.038 3.124-1.448-.136.114-.326.171-.435.324.217-.076 0 .133 0 .162-.286.153-.59.265-.905.333-.272.095-.553.172-.824.276-.316.099-.62.236-.906.41a8.15 8.15 0 0 0 1.648-.572c.553-.21 1.114-.419 1.666-.638.553-.219.906-.438 1.313-.619.264-.12.537-.218.815-.295a.502.502 0 0 1-.163.133.164.164 0 0 0 .109 0 .82.82 0 0 1-.245.19c0-.056-.163 0-.244.077a.569.569 0 0 1 .235 0c-.31.108-.596.28-.842.505-.172 0-.326.124-.498.171l.724-.41c-.585.227-1.157.49-1.71.791h.126c-.474.267-.98.466-1.503.59.663-.167 1.31-.393 1.938-.676-.544.21-1.06.496-1.612.686h.344c-.082.095-.2.067-.29.143.534-.114 1.005-.41 1.521-.58-.126.104-.29.142-.416.247.163.114.779-.515.905-.324.127.19-1.104.619-1.122.628h.126c-.081.2-.525.324-.706.42a7.217 7.217 0 0 1-.905.371c-.29.105-.598.133-.906.229-.25.143-.523.24-.806.285.408-.21.86-.324 1.232-.543a1.32 1.32 0 0 1 .416-.171s.245.152.28 0c.037-.152 0 0 .119-.124.118-.086.242-.162.37-.228-.343 0-.742.323-1.077.41-.335.085-.733.2-1.077.275l.181-.01zm-2.716.543h.081c-.054 0-.18 0-.217.066a.284.284 0 0 0 .136 0v-.066zm1.874-.296h-.172c.181 0 .362-.114.534-.123-.127-.058-.244 0-.362.076v.047zm-.697.048a2.524 2.524 0 0 0-1.005.22c.346.004.689-.07 1.005-.22zm6.139-3.02c-.612.358-1.244.676-1.893.953-.683.217-1.35.49-1.992.82.716-.324 1.503-.543 2.228-.848.416-.172 1.503-.457 1.657-.953v.029zm-1.884.868c-.842.257-1.648.638-2.48.952-.408.143-.825.248-1.232.39-.208.067-.905.181-1.014.362a31.181 31.181 0 0 0 4.726-1.704zm-4.2 2.152a7.689 7.689 0 0 0 1.212-.314c-.416 0-.805.228-1.213.314zm-.137-.38c.133.028.271-.003.38-.087-.13.005-.259.034-.38.086zm2.943-.572s-.335 0-.299.085c.102-.017.203-.045.299-.085zm-.715-.153c-.218-.047-.127.22-.055.134.073-.086 0-.162.055-.134zm-1.866 1.105a.239.239 0 0 0 .227-.095.695.695 0 0 1-.227.095zm2.717-1.905a.594.594 0 0 0-.218 0 .483.483 0 0 0 .218 0zm-1.096.886h-.054.054zm-.045-.076h-.1.1zM120.205 17.404c.218.581.577.985.795 1.596-.16 0-.391-.483-.474-.68h.064c-.032-.197-.257-.502-.334-.68A8.645 8.645 0 0 1 120 17c.06.144.13.279.205.404zM117.939 11.072c.138.06 0 .165 0 .2 0 .036 0-.117-.042-.105-.241.086-.49.086-.731 0h.117l-.283-.071c.227-.073.459-.104.69-.094 0 0 .36 0 .262.094" opacity=".6"/>
        <path fill="#5F296A" d="M121 18c.196.16.363.38.559.535.158.144.306.3.441.465-.145-.027-.352-.305-.441-.396-.196-.155-.486-.363-.559-.604zM119.68 16.735c-.2 0-.8-.616-.659-.735 0 .04 1.177.954 1.024 1-.165-.166-.353-.311-.53-.477a.956.956 0 0 0 .165.212zM121 20c.356.309.69.643 1 1-.336-.333-.781-.524-1-1M122.002 11.365c-.059-.26 1.174-.365 1.174-.365s-1.174.341-1.174.365zM123.176 20.167c-.152.121-1.264-.98-1.17-1.167.222.264.503.518.737.77.234.254.328.276.433.397zM120.023 17c.335.35.704.684 1.106 1-.294-.055-1.294-.898-1.106-1M124.33 18.576A1.847 1.847 0 0 1 124 18c.141 0 .2.188.318.282h-.094c0 .07.588.812.376.847a.847.847 0 0 1-.282-.258c0-.083.094 0 .13 0 .034 0-.048-.271-.119-.295zM118.965 14.67c-.318.165-.741-.411-.965-.67.362.159.69.386.965.67zM119.224 15.447c0 .082.376.682.305.73A2.612 2.612 0 0 1 119 15c.23.23.383.526.435.847-.082-.118-.094-.282-.211-.376M122 20.141c.141 0 .188.177.282.259l-.153-.4s.542.659.4.682a.965.965 0 0 1-.529-.54zM120 10.624l1-.624c-.32.269-.655.478-1 .624M121.835 19.894c-.2 0-.176-.212-.294-.282l-.247-.106A1.941 1.941 0 0 1 121 19c.27-.012.647.718.835.894zM120 10.005c-.153.16-.315.29-.483.388-.12.095-.385.4-.517.353a2.64 2.64 0 0 1 .517-.4c.139-.105.324-.388.483-.34z" opacity=".6"/>
        <path fill="#5F296A" d="M122.93 20.894c-.248 0-.871-.682-.93-.894.371.227.689.532.93.894zM120 18c.27.306.494.659.765.965-.306 0-.647-.753-.765-.965" opacity=".6"/>
        <path fill="#5F296A" d="M122.027 20c.144.121.267.264.365.424.059.14-.106.152 0 .305-.118 0-.306-.223-.094-.235-.094-.094-.388-.176-.27-.494zM118.518 15.176A4.588 4.588 0 0 1 118 14c.236.361.41.759.518 1.176M118.988 12a5.4 5.4 0 0 1-.988.2c.2-.223.741-.2.988-.2M118.953 11.431l-.282-.118c-.095-.188-.506-.235-.671-.305.33-.048 1.012.129.953.423zM121 10c-.068.294-.818.506-1 .624a7.24 7.24 0 0 1 1-.624zM118.365 16.847A1.788 1.788 0 0 1 118 16c.141.273.263.556.365.847M124.506 18.87A1.812 1.812 0 0 1 124 18c.149.301.318.592.506.87M120.647 16.93c-.235-.083-.6-.718-.647-.93a2.6 2.6 0 0 1 .647.93zM121 19c.13 0 .588.494.541.624A4.13 4.13 0 0 1 121 19zM119 16c.14.247.266.503.376.765A2.082 2.082 0 0 1 119 16M121 16c.189 0 .448.306.636.365-.118.059-.659-.2-.635-.365zM120.494 18.765c-.165-.247-.423-.46-.494-.765.13.282.4.47.494.765M124 10.412l.87-.412a1.812 1.812 0 0 1-.87.412M122.635 11.13a1.67 1.67 0 0 1-.635.129c.188-.106.412-.106.576-.259l-.082.106a.306.306 0 0 1 .141.023zM125.282 20.506A1.376 1.376 0 0 1 125 20c.094.07.341.365.282.506M119.353 17.576c-.13-.188-.235-.388-.353-.576.154.167.274.363.353.576" opacity=".6"/>
        <path fill="#5F296A" d="M124.021 18s.306.482.2.424c-.106-.06-.282-.377-.2-.424M122 17c.153.106.353.212.4.412L122 17M120.376 18.467c-.164-.13-.223-.33-.376-.459.118-.07.341.341.376.459zM124.011 20.106a.13.13 0 0 1 0-.106c.142.082.07.282.177.388-.059-.07-.13-.259-.165-.294M120.242 17.355c-.07 0-.282-.247-.235-.34.047-.095.223.305.235.34M118.259 14.294A.341.341 0 0 1 118 14a.647.647 0 0 1 .259.294M122 8.318c.17-.162.382-.272.612-.318-.212.09-.417.196-.612.318M122 19c.165 0 .212.153.247.27 0-.094-.235-.152-.247-.27M118 12h.482s-.447.13-.482 0" opacity=".6"/>
        <path fill="#5F296A" d="M120.27 18.4c-.14-.106-.188-.27-.27-.4.12.11.213.247.27.4zM121.224 18.247c-.142 0-.165-.153-.224-.247.106.047.165.153.224.247zM123 17s.212.106.188.176c-.023.071-.176-.152-.188-.176M123.24 20.23s-.282-.117-.235-.211c.047-.095.224.2.236.211M122 10.177a.87.87 0 0 1 .541-.177c-.176.07-.376.082-.541.177zM116 11.037c.118-.083.235 0 .365 0-.121.019-.244.019-.365 0zM121 16s.33.082.212.141A.706.706 0 0 0 121 16M122.02 19.047a.518.518 0 0 0 .21.188.188.188 0 0 1-.223-.235M120.289 15.256c-.095 0-.33-.14-.283-.235.047-.094.259.153.283.235zM124.2 18.179c-.13 0-.106-.13-.2-.153.133-.063.2-.012.2.153zM118.028 14c0 .118.141.176.153.318-.035-.012-.259-.27-.153-.318zM122.188 16.224L122 16c.082 0 .259.153.188.224" opacity=".6"/>
        <path fill="#5F296A" d="M123.189 17.184s-.2-.13-.189-.177c.012-.047.177.153.189.177M121.2 16.176c-.106 0-.2 0-.2-.176l.2.176zM122.235 16.188A.659.659 0 0 1 122 16a.353.353 0 0 1 .235.188M122.494 10c-.148.101-.317.17-.494.2.165-.07.33-.13.494-.2zM119.388 12a1.318 1.318 0 0 1-.388.082.976.976 0 0 1 .388-.082M119.27 14.165A1.6 1.6 0 0 1 119 14a.294.294 0 0 1 .27.165M121 18a.694.694 0 0 1 .188.27A.518.518 0 0 1 121 18M123.212 16.13A.388.388 0 0 1 123 16c.09 0 .172.05.212.13M124 11.082a.33.33 0 0 1 .224-.082.282.282 0 0 1-.224.082M124.153 20.306A.647.647 0 0 1 124 20a.718.718 0 0 1 .153.306M120 15a.27.27 0 0 1 .224.176A.376.376 0 0 1 120 15z" opacity=".6"/>
        <path fill="#5F296A" d="M124.106 20.235A.294.294 0 0 1 124 20c.06.065.097.148.106.235M116 12s.33 0 .33.059-.341.012-.33-.059zM120.2 15.153c-.106 0-.141-.094-.2-.153.083.026.154.08.2.153zM123 20c.086.016.149.09.153.176A.259.259 0 0 1 123 20M122 20c.106 0 .13.07.2.118A.247.247 0 0 1 122 20zM118.188 14.13A.247.247 0 0 1 118 14c.075.023.14.068.188.13M122 17c.092.03.165.098.2.188A.27.27 0 0 1 122 17zM122.165 12.083H122a.518.518 0 0 1 .294-.083l-.13.083zM125.153 19.176A.318.318 0 0 1 125 19c.08.025.14.094.153.176M121 18c.106 0 .118.082.153.141.035.059-.106-.094-.153-.141z" opacity=".6"/>
        <path fill="#5F296A" d="M124.112 20.154s-.165-.141-.094-.153c.07-.012.094.106.094.153zM121.294 12a.635.635 0 0 1-.294.082.682.682 0 0 1 .294-.082M125.083 20.153a.153.153 0 0 1-.082-.153.224.224 0 0 1 .082.153M118.055 12s.118.153 0 .141c-.118-.012-.012-.106 0-.141zM122.13 17.047H122s.106-.106.13 0z" opacity=".6"/>
        <path fill="#5F296A" d="M124.009 20c.04.03.061.08.058.13a.094.094 0 0 1-.058-.13zM119 15.116v-.082.082M121.082 18.118A.13.13 0 0 1 121 18l.082.118M121 19.07l.106-.07a.094.094 0 0 1-.106.07M122 9.059s.082-.059.141-.059l-.141.059zM122 17.07V17s.094.082 0 .07zM121.13 10.017H121a.13.13 0 0 1 .13 0M123 20.042c0-.141.106.13 0 0" opacity=".6"/>
        <path fill="#5F296A" d="M124 20.082V20s.059.059 0 .082zM119 15c.07 0 0 .094 0 0M122 12h.106s-.106.047-.106 0zM122 20.017a.059.059 0 0 1 .082 0 .059.059 0 0 1-.082 0zM123.031 20s-.07 0 0 0M121.005 19s-.012 0 0 0zM124 20s.012.012 0 0zM117.938 11.141c.284.213 1.247-.863 1.467-1.02.522-.392 1.054-.729 1.595-1.121 0 0-.917.695-.99.774-.073.078-.34.291-.523.426-.183.134-.421.179-.421.291h.119c-.434.406-.887.78-1.357 1.121a.176.176 0 0 1 0-.112.371.371 0 0 0-.22.235c-.137-.123 0-.19-.183-.09-.184.102-.284.494-.413.304-.128-.191.798-.763.917-.83 0 0-.348.314-.32.381l.33-.359zm1.284-.83c-.046.068.064 0 0 0zM119.876 8.764c-.302.07-.574.165-.876.236 0-.083 1.36-.46 1.51-.514.151-.053 1.118-.514 1.49-.485-.14.142-.775.272-1.007.355-.231.083-.986.254-1.117.408zM122 9c0 .078-.632.348-.708.383-.415.22-.867.404-1.292.617 0-.142.802-.44.943-.51.313-.208.67-.373 1.057-.49zM123 8c0-.164 1.136-.516 1.307-.563.557-.164 1.136-.265 1.693-.437-.273.219-1.057.313-1.432.414-.375.102-1.034.461-1.568.586zM117.426 6c-.164.331-.223.675-.423 1-.026-.347.12-.692.423-1z" opacity=".6"/>
        <path fill="#5F296A" d="M121 9c-.322.364-.655.698-1 1 .317-.375.651-.71 1-1" opacity=".6"/>
        <path fill="#5F296A" d="M116.125 1.042c0 .165.106 0 .106 0s.294.682.153.776c-.141.094-.224-.117-.235-.164-.012-.047 0-.295 0-.353 0-.06-.189-.165-.141-.26.047-.093.082 0 .082 0" opacity=".5"/>
        <path fill="#5F296A" d="M116.012 10.941c.026-.236.078-.469.153-.694 0 0 .153-.235.153-.247-.013.214-.06.425-.142.624 0 .082-.129.529-.176.317M121 10.003c-.267.402-.614.695-1 .847.15-.14.788-.906 1-.847M122 10c-.3.346-.64.606-1 .765.29-.372.633-.634 1-.765zM123 10s-.935.635-1 .67c.284-.354.63-.587 1-.67M122.695 8.094l-.165.07h.106s-.659.471-.635.33c.023-.141.729-.47.776-.494l-.082.094" opacity=".6"/>
        <path fill="#5F296A" d="M122 10.635a2.158 2.158 0 0 1 1-.635c-.316.26-.651.473-1 .635zM121 10.47c.082-.188.835-.435.988-.47-.317.13-.647.306-.988.47zM116 9.344c0-.082 0-.376.13-.341.129.035-.012.423-.13.341zM118 11a4.2 4.2 0 0 1 .776.118A2.694 2.694 0 0 1 118 11M117.127 5a2.353 2.353 0 0 1-.083.541c-.105-.165 0-.388.083-.541M121.4 8c.046.03.08.076.094.13-.158.078-.323.142-.494.188.106-.142.33-.142.4-.318M123.576 10.011c-.129.177-.4.141-.576.224.094-.094.447-.283.576-.224M117 11.286s.141-.365.282-.27c.142.094-.247.247-.282.27" opacity=".6"/>
        <path fill="#5F296A" d="M118 11.376c.141-.235.435-.258.659-.376-.165.2-.506.153-.659.376M118.48 10c0 .141-.388.294-.47.353-.083.059.376-.318.47-.353zM121 9.27c.106-.164.33-.14.47-.27a.788.788 0 0 1-.47.27zM122.506 8a.965.965 0 0 1-.506.282c.149-.126.32-.222.506-.282zM123 10.153c.126-.076.266-.128.412-.153a.8.8 0 0 1-.412.153M122.447 10.02l-.447.177c0-.07.412-.259.447-.177M123.447 8a1.294 1.294 0 0 1-.447.235 2.07 2.07 0 0 1 .447-.235zM118.365 10a.824.824 0 0 1-.365.212.67.67 0 0 1 .365-.212z" opacity=".6"/>
        <path fill="#5F296A" d="M122 10.2l.494-.2a1.176 1.176 0 0 1-.494.2" opacity=".6"/>
        <path fill="#5F296A" d="M122.53 10c-.172.085-.35.16-.53.224.07-.083.53-.212.53-.224zM121.494 10a.976.976 0 0 1-.494.2c.159-.08.324-.147.494-.2zM117 11c.13 0 .259 0 .388.059A1.035 1.035 0 0 1 117 11zM122.388 10a1.824 1.824 0 0 1-.388.141c.126-.055.256-.102.388-.141" opacity=".6"/>
        <path fill="#5F296A" d="M122 10.165c.106-.118.27-.118.412-.165l-.412.165zM118 11.165a.482.482 0 0 1 .235-.165.706.706 0 0 1-.235.165" opacity=".6"/>
        <path fill="#5F296A" d="M122 10.141l.365-.141s-.365.2-.365.141zM116 10.224a.318.318 0 0 1 .071-.224.212.212 0 0 1-.07.224M118.165 11a.188.188 0 0 1-.165.094l.165-.094M115.07 12a.188.188 0 0 1-.07.176c.07-.07.07-.14.07-.176z" opacity=".6"/>
        <path fill="#5F296A" d="M114.096 1.165c-.13 0-.106-.083-.059-.165l.06.165zM115.082 1a.153.153 0 0 1-.082.13s.035-.118.082-.13z" opacity=".5"/>
        <path fill="#5F296A" d="M116.106 11.033H116a.059.059 0 0 1 .106 0zM116 12.04c.094-.153 0 .2 0 0M118 10.082s.082 0 .118-.082a.188.188 0 0 1-.118.082zM115 12.026s0-.059 0 0 0 .012 0 0zM116.037 12c0 .141-.083 0 0 0" opacity=".6"/>
        <path fill="#5F296A" d="M115 1s.012.012 0 0zM115 1s.024 0 0 0z" opacity=".5"/>
        <path fill="#5F296A" d="M111.023 11.037c.115-.153 1.05.211 1.153.364-.207.083-.38-.117-.61-.153 0 0 .414.165.403.224-.012.059-.888-.318-.969-.435M110 11.038c.141-.094.494 0 .541.141a1.753 1.753 0 0 1-.541-.141M112.53 12.039a.976.976 0 0 1-.53 0 .918.918 0 0 1 .53 0zM107.282 11.047a.341.341 0 0 1-.282 0 .235.235 0 0 1 .282 0" opacity=".6"/>
        <path fill="#5F296A" d="M112.341 12.016a.412.412 0 0 1-.341 0 .941.941 0 0 1 .341 0z" opacity=".6"/>
        <path fill="#5F296A" d="M112.282 12.094A.341.341 0 0 1 112 12c.094.012.235 0 .282.094zM109.306 12a.4.4 0 0 1-.306 0h.306" opacity=".6"/>
        <path fill="#5F296A" d="M112 12.026a.282.282 0 0 1 .235 0 .176.176 0 0 1-.235 0M107.106 12.063H107a.165.165 0 0 1 .259 0 .27.27 0 0 0-.153 0M111.141 12.026a.165.165 0 0 1-.141 0s.118-.059.141 0zM107.052 12c-.117 0 0 0 0 0M111.042 12s-.094 0 0 0M106 12s.035.012 0 0zM109.005 12s-.012.012 0 0zM107.414 10.254c-.043-.247-.314-.106-.414-.165.05-.2.379 0 .429 0 .05 0 .485-.141.571 0-.186.165-.421.012-.586.165zM109.359 10c.13 0 .482.07.33.224-.154.152-.624-.142-.683-.177-.059-.035.33.035.353-.047zM110.02 10c.177.07-.094.059 0 0M111 10.017c0 .059 0-.059 0 0M107 10h0z" opacity=".6"/>
        <path fill="#5F296A" d="M107 10h.07s-.046.012-.07 0zM110.02 11c-.046.035 0 0 0 0zM110 10s.012.012 0 0z" opacity=".6"/>
        <path fill="#5F296A" d="M114.447 19c.224 0-.447.918-.447.882.058-.332.214-.639.447-.882zM114 20.412l.282-.412c0 .059-.176.47-.282.412"/>
        <path fill="#5F296A" d="M114.141 18.003c-.031.15-.079.296-.141.436 0 0 0-.483.141-.436M115.094 18c.02.1-.016.204-.094.27 0-.105.012-.235.094-.27zM114.132 19s-.059.282-.118.235c-.059-.047.083-.176.118-.235z" opacity=".6"/>
        <path fill="#5F296A" d="M114.002 19.2a.212.212 0 0 1 .083-.2.247.247 0 0 1-.083.2zM114 20.153l.07-.153a.13.13 0 0 1-.07.153M115.018 18.018c.153-.082-.082.153 0 0" opacity=".6"/>
        <path fill="#5F296A" d="M114.02 20a.082.082 0 0 1 0 .106.082.082 0 0 1 0-.106zM115 18.016c.082-.059.07.07 0 0M114 19.01s0-.023 0 0zM114 20.026c.106-.059 0 0 0 0M114 20s.012 0 0 0zM114 20.005s.012-.012 0 0zM112.153 18.07l.094-.07a.894.894 0 0 1-.247.576c0-.129.13-.388.153-.505M113 16.307c0-.082.082-.282.188-.306.106-.024 0 .376-.188.306M114.435 14c-.094.188-.294.294-.435.447 0 0 .365-.459.435-.447" opacity=".6"/>
        <path fill="#5F296A" d="M113.247 16c0 .165-.176.247-.247.388a.706.706 0 0 1 .247-.388zM114.038 16.356c-.141.094.153-.317.188-.353.036-.035-.188.212-.188.353M112 20.252s0-.294.118-.247c.117.047-.106.235-.118.247M112 16.015c.153-.082 0 .2 0 .259s.059-.177 0-.26zM113 16.2a.353.353 0 0 1 .118-.2.176.176 0 0 1-.118.2M112.02 17a.165.165 0 0 1 0 .141.13.13 0 0 1 0-.141zM114 14.082s0-.082.07-.082a.094.094 0 0 1-.07.082zM112.047 20c0 .176-.106.118 0 0M113.057 17c-.07.176-.082 0 0 0M114 15.063v-.059a.082.082 0 0 1 0 .06zM112 20.089c0-.2.118 0 0 0M113 16.07V16v.07zM113 16c.016.02.016.05 0 .07V16zM112 17s0 .024 0 0zM112 18c.094 0 0 .094 0 0M113 16.01s.012-.023 0 0zM114.01 16s-.023 0 0 0zM112 20c0 .059 0 0 0 0M113 16s.024.012 0 0zM114 15.005s.012-.012 0 0z" opacity=".6"/>
        <path fill="#5F296A" d="M117.046 3a.33.33 0 0 1 0 .247.188.188 0 0 1 0-.247M116.104 1.167s-.176-.188-.07-.165c.04.046.065.104.07.165z" opacity=".5"/>
        <path fill="#5F296A" d="M116.224 3c.17.218.221.47.141.712 0 .056-.082-.512-.082-.512-.106.272-.141.568-.283.8-.011-.32.212-.656.224-1zM115.07 5.342a1.506 1.506 0 0 1-.07-.306c.176-.189 0 .435.07.306M116.118 5.212a.259.259 0 0 1-.118.2c.008-.14.036-.28.082-.412a.294.294 0 0 1 0 .176" opacity=".6"/>
        <path fill="#5F296A" d="M116.03 5a.27.27 0 0 1 0 .282.353.353 0 0 1 0-.282M115.026 5a.106.106 0 0 1 0 .106s-.059-.082 0-.106z" opacity=".6"/>
        <path fill="#5F296A" d="M116.014 5a.07.07 0 0 1 0 .106.106.106 0 0 1 0-.106zM116.047 3.032c0 .094-.106-.106 0 0M116 5c0 .07 0 0 0 0" opacity=".6"/>
        <path fill="#5F296A" d="M114.354 18.335c-.094.094-.212.46-.353.483a.965.965 0 0 1 .223-.66v.142c0 .047.118-.353.177-.294s-.083.247-.047.33zM112 20.624c0-.165.176-.506.27-.624a.447.447 0 0 1-.27.624z"/>
        <path fill="#5F296A" d="M112.341 20.005c-.106.142 0 .342-.188.448 0-.436 0-.106-.153 0 0-.071.235-.506.341-.448"/>
        <path fill="#5F296A" d="M113 20.412s.13-.318.165-.306v.07a.376.376 0 0 0 .13-.176.482.482 0 0 1-.295.412z" opacity=".6"/>
        <path fill="#5F296A" d="M113.355 20c0 .07-.247.6-.34.494-.095-.106.305-.447.34-.494"/>
        <path fill="#5F296A" d="M113.104 20a.2.2 0 0 0 .153 0c0 .059-.13.306-.223.282-.094-.023.035-.27.07-.282z"/>
        <path fill="#5F296A" d="M114 16.378c0-.07.082-.482.176-.353.095.13-.152.306-.176.353" opacity=".6"/>
        <path fill="#5F296A" d="M114 16.124c.282-.353.106.165 0 .106v-.106M114 17.447a1 1 0 0 1 .282-.447s-.188.494-.282.447" opacity=".6"/>
        <path fill="#5F296A" d="M112.173 21s-.118.388-.165.341c-.047-.047.13-.282.165-.341z"/>
        <path fill="#5F296A" d="M114 19.247c0-.059 0-.247.118-.247.117 0-.094.235-.118.247M112.071 21a.224.224 0 0 1-.07.212.306.306 0 0 1 .07-.212" opacity=".6"/>
        <path fill="#5F296A" d="M112.11 21l-.106.2a.176.176 0 0 1 .106-.2M114 18.149s0-.189.082-.141c.083.047-.058.129-.082.14zM114 17.141l.07-.141a.118.118 0 0 1-.07.141" opacity=".6"/>
        <path fill="#5F296A" d="M114 17.153c0-.07 0-.094.059-.153a.13.13 0 0 1-.059.153zM112 21.13a.176.176 0 0 1 .082-.13.094.094 0 0 1-.082.13zM113.107 20c0 .078-.036.118-.106.118a.106.106 0 0 1 .106-.118" opacity=".6"/>
        <path fill="#5F296A" d="M114.018 17a.07.07 0 0 1 0 .094.07.07 0 0 1 0-.094z" opacity=".6"/>
        <path fill="#5F296A" d="M114.084 17a.153.153 0 0 1-.083.13.118.118 0 0 1 .083-.13M113 20.094s0-.082.094-.094a.106.106 0 0 1-.094.094zM114 17.078c.059-.176.094 0 0 0M115 16v.106V16M114 17.063c0-.141.082 0 0 0M114 17c0 .082 0 0 0 0M113 20s0 .012 0 0zM113.005 20s-.012.012 0 0zM114.005 18s-.012 0 0 0zM113.376 15c0 .141-.258.459-.376.541.08-.208.209-.394.376-.541zM112.012 16.412c.1-.112.132-.27.082-.412.141.212 0 .33-.094.518l.012-.106zM113.247 15c0 .141-.153.2-.247.294.07-.082.118-.235.247-.294z" opacity=".6"/>
        <path fill="#5F296A" d="M112.007 16.01c.212-.071 0 .293 0 .187a.612.612 0 0 1 0-.188z" opacity=".6"/>
        <path fill="#5F296A" d="M112.086 16a.718.718 0 0 1 0 .141c-.152.094-.07-.106 0-.141zM113 14.104s0-.141.07-.094c.071.047-.035.094-.07.094z" opacity=".6"/>
        <path fill="#5F296A" d="M112 16.14c0-.06.082-.236.106-.071l-.106.07zM113 15.107V15c.106-.012.059.106 0 .106zM114 14.01c.082-.058 0 .154 0 0" opacity=".6"/>
        <path fill="#5F296A" d="M114.06 14l-.06.106a.094.094 0 0 1 .095-.106M113 15.082a.118.118 0 0 1 .07-.082s-.035.07-.07.082zM113.063 15c0 .153-.141 0 0 0M112.01 16s-.023.012 0 0zM112.005 16.005s-.012-.012 0 0zM112.005 16.005s-.012-.012 0 0zM116.116 9.212v.353A.718.718 0 0 1 116.02 9a.812.812 0 0 1 .095.212zM114 16.165a.212.212 0 0 1 .106-.165c.059 0 0 .224-.106.165" opacity=".6"/>
        <path fill="#5F296A" d="M114 16.13s0-.106.094-.13a.118.118 0 0 1-.094.13zM116.013 10.082a.07.07 0 0 1 0-.082v.082M116 10c0 .106 0 0 0 0M119 15c.204 0 .39.362.57.457-.052-.127-.18-.148-.239-.276.298-.096.893.638 1.13.85.239.214.85.671.85.841-.212-.074-.28-.287-.467-.361.1.26.245.489.425.67.286.208.534.487.731.819-.246-.128-.425-.49-.637-.67-.213-.181-.434-.34-.638-.532-.204-.192-.56-.617-.85-.915a4.619 4.619 0 0 1-.85-.872" opacity=".6"/>
        <path fill="#5F296A" d="M120.213 16.39c0-.148-.162-.25-.213-.39.366.084.809.698 1.08.93.356.303.666.664.92 1.07a15.906 15.906 0 0 0-1.566-1.46c.205.213.372.465.494.744-.154-.177-.63-.67-.537-.856-.144 0-.144-.223-.246-.288-.102-.066.144.241.068.25zM122 18c.22.14.42.297.6.466.18.127.565.33.576.534-.248-.085-.486-.381-.667-.517a1.23 1.23 0 0 1-.498-.483M120.412 17.488c-.153 0-.353-.365-.412-.483.141-.059.341.4.412.483zM121.376 18.459c-.129 0-.317-.365-.376-.459.165.024.282.341.376.459zM123 19c.07 0 .235.141.2.2-.035.059-.188-.176-.2-.2zM119.235 14.247A.247.247 0 0 1 119 14c.1.03.182.103.224.2" opacity=".6"/>
        <path fill="#5F296A" d="M123.153 19.188L123 19a.165.165 0 0 1 .153.188M120.082 15.2A.294.294 0 0 1 120 15c.106.035.188.106.082.2zM121.165 18.188A.27.27 0 0 1 121 18a.282.282 0 0 1 .165.188M122 19a.282.282 0 0 1 .118.141c-.083.012-.07-.094-.118-.141z" opacity=".6"/>
        <path fill="#5F296A" d="M123 19c.048 0 .088.035.094.082A.13.13 0 0 1 123 19" opacity=".6"/>
        <path fill="#5F296A" d="M123.106 19.118c-.082 0-.082-.06-.106-.118.05.022.09.065.106.118zM124 19c.059 0 .106 0 .094.106A.141.141 0 0 1 124 19zM121 16.025a.082.082 0 0 1 .118 0H121zM122 19c.106 0 0 .118 0 0M120.031 17v.094s-.07-.082 0-.094z" opacity=".6"/>
        <path fill="#5F296A" d="M123.059 19H123l.059.07M120.005 15.005s-.012-.012 0 0zM122.005 19s-.012.012 0 0zM124 19.005s0-.012 0 0zM126 9c-.15.53-1.287.847-1.706 1.058-.756.339-1.557.582-2.294.942.297-.177.61-.319.932-.423.364-.159.728-.307 1.082-.487.668-.307 1.319-.66 1.949-1.058" opacity=".6"/>
        <path fill="#5F296A" d="M125 10.017a52.42 52.42 0 0 1-5 .983c.153-.107.757-.152.958-.191.47-.09.958-.157 1.408-.247.881-.169 1.734-.393 2.624-.562M120 12.388c.336-.106.657-.33 1-.388-.326.17-.66.3-1 .388" opacity=".6"/>
        <path fill="#5F296A" d="M124 10a2.053 2.053 0 0 1-1 .494 4.443 4.443 0 0 1 1-.494zM120.176 12.001c-.369.186-.77.278-1.176.271a2.35 2.35 0 0 1 1.176-.27zM120 12.106c.157-.064.324-.1.494-.106a.624.624 0 0 1-.494.106M122.388 11.022c-.125.05-.255.085-.388.106 0-.153.353-.14.388-.106M121 12.112c.153 0 .306-.165.47-.094-.164 0-.305.117-.47.094" opacity=".6"/>
        <path fill="#5F296A" d="M122.143 11.01s-.082.177-.07.165c.012-.012-.212-.224.07-.165M120 12.118a.93.93 0 0 0 .294-.118.318.318 0 0 1-.294.118M123.282 10.012a.67.67 0 0 1-.282 0 .824.824 0 0 1 .282 0M120.224 12H120h.224M119.176 12.031H119a.141.141 0 0 1 .176 0z" opacity=".6"/>
        <path fill="#5F296A" d="M122.094 11.053c0 .07-.023.07-.07 0-.048-.07-.024-.07.07 0M124 11.06a.13.13 0 0 1 .13-.058l-.13.058M122.13 11H122h.13M119 12h.106a.082.082 0 0 1-.106 0zM120 17a1.4 1.4 0 0 1 .318.482A1.435 1.435 0 0 1 120 17" opacity=".6"/>
        <path fill="#5F296A" d="M120.153 17.388A2.082 2.082 0 0 1 120 17c0 .07.259.341.153.388M122.153 20.012c0 .07-.141.082-.153 0a.247.247 0 0 1 .153 0M124.07 18.165L124 18c.094 0 .118.055.07.165M118.416 10c.07.094-.365.306-.412.33-.047.023.364-.306.412-.33M119.141 10s-.094.082-.141.07l.141-.07zM119.015 10c.082 0-.059.07 0 0M119 10s.012 0 0 0zM122.518 10c0 .106-.436.2-.518.235.162-.1.336-.179.518-.235" opacity=".6"/>
        <path fill="#5F296A" d="M122.518 10c0 .106-.436.2-.518.235.163-.098.337-.177.518-.235M111.235 11.106L111 11s.235 0 .235.106M111 11s.012 0 0 0zM113.094 20l-.094.165a.176.176 0 0 1 .094-.165" opacity=".6"/>
        <path fill="#5F296A" d="M113.082 20.053H113c0-.07.027-.07.082 0M120.176 16.282s-.164-.258-.176-.282a.506.506 0 0 1 .176.282" opacity=".6"/>
        <path fill="#DEE68A" fill-rule="nonzero" d="M117 11.24a1.066 1.066 0 0 0-.621-.212c.045-.062.225 0 .297 0-.333 0-1.432 0-1.315.53a.252.252 0 0 0 0-.08l-.316.23c0 .08.154 0 .172 0a4.85 4.85 0 0 1-.1.496c0 .07-.126.442-.117.46h.073a1.053 1.053 0 0 0-.055.398.292.292 0 0 1 .1-.141.873.873 0 0 0 .198.725c.09.08.9.451.738.248 0 0 .406 0 .289.106.27-.097.513-.257.747-.363.234-.106.658-.38.667-.495l-.234.053c.046-.213.116-.42.207-.62a1.54 1.54 0 0 0 .108-.282c0-.045-.162-.142-.108-.177.04 0 .077.02.099.053.01-.115.01-.23 0-.345 0-.124-.108 0-.18-.053a.352.352 0 0 1 .351-.213.154.154 0 0 1-.11-.053.149.149 0 0 1-.034-.115c-.324.204-.288-.159-.496-.212.064.097-.26.08-.243.106m-1.783 2.265c-.072.08-.19-.097-.18-.142.009-.044.225 0 .234.053l-.054.08m.126-.823c0-.062.045.124 0 .177a.2.2 0 0 1 0-.177m.306.54a.181.181 0 0 1-.144.07.322.322 0 0 1 0-.185.217.217 0 0 0 0 .08c.117-.195.054.053.081 0m-.09-.284s-.117-.132-.072-.177c.045-.044.072.169.072.177m-.28-1.15a.14.14 0 0 1-.053.133l.054-.133m.846 1.85a.503.503 0 0 1 .28-.054.329.329 0 0 1-.28.053m.27.248c-.143.07.154-.177.18-.106.028.07-.17.097-.18.106m.631-.38h-.09c.09-.115.19-.257.351-.284a1.786 1.786 0 0 0-.26.257"/>
        <path fill="#5F296A" d="M115.586 6.926c.078-.31.138-.625.18-.942.094-.418.22-.83.376-1.23 0 0-.34 1.448-.358 1.579.186-.392.307-.81.358-1.239a24.429 24.429 0 0 1-.152 3.14 6.889 6.889 0 0 0 .287-2.014 7.158 7.158 0 0 0 0-2.129c.313-.044.098 1.466.09 1.701 0 .68 0 1.326-.117 2.007-.117.68-.081 1.099-.117 1.648a4.949 4.949 0 0 0-.098.69c.107.095.107-.437.107-.446 0-.348.08-.689.108-1.038.027-.349.116-.872.17-1.326v-.444c0-.14.126-.27.161-.437.081 0 0 .14.063.184.323-.262-.063-1.143.161-1.5.117.086 0 .575 0 .688.018.33-.003.66-.062.986-.054.123-.09.252-.108.384 0 .349-.063.698-.098 1.047.188-.227.188-.628.313-.873.106-.28.16-.574.162-.872 0-.288.053-.584.08-.872 0 0-.08-.096-.08-.131s.071-.157.08-.236c.022-.55.004-1.1-.053-1.648a5.104 5.104 0 0 1 .233-1.536s-.126.253-.135.28c-.009.026.072-.48 0-.646-.081.208-.15.42-.206.637 0 0-.143.427-.188.288-.045-.14.09-.288.116-.376.09-.287.18-.575.26-.872 0-.13 0-.41.188-.375.189.035.26.384.314.489a6.02 6.02 0 0 1 .314 2.983v1.614c0 .349-.108.628-.108.96a6.816 6.816 0 0 1-.51 2.494.917.917 0 0 0 .125-.227c0 .297-.188.515-.296.733a2.687 2.687 0 0 0-.26.785.518.518 0 0 1 0-.218c-.224.192-.107-.183-.116-.314a1.72 1.72 0 0 1-.216.497c.054-.305 0-.157-.071-.078-.126-.148.161-.393-.18-.332.1.096 0 .262-.08.288-.08.026-.072 0-.144-.166a3.104 3.104 0 0 1-.152-.636c-.117.174-.251.314-.314.401a4.74 4.74 0 0 0-.26.584s0-1.177.072-1.186c.305-.105.403-.872.44-1.204.035-.331.098-.671.116-1.003 0-.113.054-.829-.045-.872 0 .34-.161.698-.206 1.046-.045.35-.162.873-.242 1.23-.08.358-.135.69-.18 1.047a7.21 7.21 0 0 1-.152 1.082.501.501 0 0 1 0-.21c-.17.123-.224-.174-.045-.27a.518.518 0 0 1 0 .096c.041-.148.068-.3.08-.453a3.01 3.01 0 0 1-.053-.393c.014-.313.05-.625.108-.933.08-.26.118-.531.116-.803v.21c.152-.424.228-.87.224-1.318z"/>
        <g fill="#3C3E40" fill-rule="nonzero">
            <path d="M19.1 18.93a6.982 6.982 0 0 1-3.368-1.235 6.466 6.466 0 0 1-2.79-5.273 6.461 6.461 0 0 1 1.824-4.95 6.863 6.863 0 0 1 7.93-1.462 6.775 6.775 0 0 1 3.803 7.067 6.806 6.806 0 0 1-5.63 5.739 1.89 1.89 0 0 0-.579.077l-1.19.038zm6.545-6.753a5.903 5.903 0 0 0-2.955-5.13 5.983 5.983 0 0 0-5.95-.023 5.903 5.903 0 0 0-2.994 5.106c-.013 3.265 2.64 5.92 5.926 5.934 3.286.012 5.96-2.623 5.973-5.887zM91.017 18.93a5.107 5.107 0 0 1-2.882-1.32c-.186-.176-.394-.314-.433-.068-.039.245 0 .583 0 .767 0 .184-.131.323-.332.315-.201-.008-.278-.169-.325-.338a1.22 1.22 0 0 1 0-.315v-2.087c0-.269 0-.599.34-.66.34-.062.448.253.533.506.773 2.357 3.3 2.856 5.107 2.203a2.381 2.381 0 0 0 1.654-2.226 2.619 2.619 0 0 0-1.167-2.418 21.795 21.795 0 0 0-2.843-1.535 7.73 7.73 0 0 1-1.963-1.297 2.851 2.851 0 0 1-.83-2.713 2.87 2.87 0 0 1 1.928-2.092 3.643 3.643 0 0 1 3.538.492c.433.322.58.829.587.437 0-.56.047-.867.387-.86.216 0 .301.215.316.392.054.662.054 1.326 0 1.988a.385.385 0 0 1-.332.384c-.262 0-.394-.139-.471-.346a2.794 2.794 0 0 0-1.066-1.535c-.89-.599-2.04-.661-2.99-.161a2.247 2.247 0 0 0-1.187 1.943 2.246 2.246 0 0 0 1.125 1.98c.886.528 1.8 1.012 2.735 1.45.729.36 1.405.816 2.009 1.358a3.309 3.309 0 0 1 .895 3.037 3.33 3.33 0 0 1-2.07 2.405c-.432.161-.88.2-1.32.315h-.943zM46.652 12.154V7.118c0-.606-.061-.66-.672-.721a.395.395 0 0 1-.402-.4.382.382 0 0 1 .379-.421 2.123 2.123 0 0 1 2.248.96c2.28 3.3 4.636 6.523 7 9.778.14.191.278.514.51.452.232-.061.178-1.212.178-1.443V7.111c0-.714-.039-.768-.773-.83-.208 0-.417-.076-.432-.314-.016-.238.216-.36.432-.368h2.233c.224 0 .456.084.44.353-.015.268-.239.307-.463.33-.58.061-.695.184-.695.767v11.015c0 .138 0 .475-.294.552-.294.077-.433-.092-.572-.284l-2.735-3.791a903.441 903.441 0 0 0-4.867-6.778c-.14-.192-.263-.552-.549-.453-.286.1-.185 1.213-.185 1.459v8.443c0 .713.077.767.772.875.224 0 .456.084.448.353-.007.268-.231.322-.432.322h-2.318c-.193 0-.417-.1-.402-.345.016-.246.216-.3.425-.33.695-.092.719-.116.719-.814v-5.127l.007.008zM63.225 18.777h-2.094a1.703 1.703 0 0 1-.41 0c-.161-.038-.324-.122-.316-.33.008-.207.162-.276.332-.314.85-.215.85-.215.85-1.098V7.387v-.36c0-.553-.139-.668-.71-.73-.225 0-.456-.061-.464-.33-.008-.269.232-.353.448-.353 1.862.046 3.74-.169 5.594.169a6.05 6.05 0 0 1 5.068 5.327 6.819 6.819 0 0 1-1.182 5.196 6.292 6.292 0 0 1-4.373 2.418c-.913.069-1.828.087-2.743.053zm-.842-6.623v5.165c0 .599.085.69.688.683 1 .047 2.002.013 2.997-.1a5.183 5.183 0 0 0 4.435-3.691 7.81 7.81 0 0 0 .232-2.648 5.233 5.233 0 0 0-3.863-4.913 13.608 13.608 0 0 0-3.863-.284c-.595 0-.68.092-.68.699.03 1.693.046 3.39.046 5.089h.008zM3.076 18.777H.966a2.255 2.255 0 0 1-.316 0c-.2 0-.417-.092-.425-.33-.008-.238.201-.314.41-.337h.123a.558.558 0 0 0 .46-.166.55.55 0 0 0 .15-.464V6.92a.55.55 0 0 0-.15-.464.558.558 0 0 0-.46-.166.637.637 0 0 1-.394-.092c-.224-.168-.231-.345 0-.506a.886.886 0 0 1 .533-.092c1.322 0 2.65-.039 3.972 0 3.237.115 5.725 1.896 6.335 4.897.448 2.225.217 4.367-1.375 6.14a6.382 6.382 0 0 1-4.095 2.042c-.883.08-1.77.114-2.658.1zM2.15 12.17v5.119c0 .568.147.722.688.714 1.015.038 2.032.007 3.044-.092a5.258 5.258 0 0 0 4.458-3.922c.235-.93.293-1.896.17-2.848a5.298 5.298 0 0 0-3.817-4.544 13.6 13.6 0 0 0-3.755-.276c-.672 0-.772.123-.772.768-.016 1.709-.021 3.402-.016 5.08zM30.126 5.568a11.36 11.36 0 0 1 3.253.26 4.545 4.545 0 0 1 3.291 3.877 5.095 5.095 0 0 1-1.105 4.06 4.287 4.287 0 0 1-1.545 1.121c-.495.238-.533.391-.201.821.332.43.634.814.958 1.205.448.538.665.99 1.383 1.052.363 0 .71-.384.912 0 .2.384-.557.721-.896.729a1.896 1.896 0 0 1-1.546-.821c-.517-.576-1.012-1.236-1.499-1.835a1.55 1.55 0 0 0-1.545-.675 9.745 9.745 0 0 1-1.367 0 .535.535 0 0 0-.447.14.528.528 0 0 0-.164.435v1.497c-.016.17.048.34.173.458a.566.566 0 0 0 .468.149c.248 0 .557 0 .549.337-.008.338-.324.353-.587.353h-2.009c-.247 0-.54 0-.549-.345-.007-.345.286-.345.534-.353.44 0 .618-.238.618-.66V6.903c0-.498-.14-.644-.642-.683-.24 0-.502-.053-.51-.33-.007-.276.279-.36.526-.36l1.947.038zm-.495 4.805v3.53c0 .553.163.699.711.699h1.368c2.573-.046 4.164-1.581 4.18-4.06 0-2.119-1.028-3.608-2.944-4.084a9.33 9.33 0 0 0-2.488-.222c-.672 0-.834.169-.834.836.007 1.129.007 2.234.007 3.3zM78.23 15.393h-2.65a.857.857 0 0 0-.928.637c-.162.452-.363.898-.525 1.35-.162.453-.093.63.402.714.208 0 .417.085.417.33 0 .246-.232.338-.448.346h-1.916c-.217 0-.456-.07-.456-.338 0-.269.216-.322.417-.33.549 0 .672-.438.827-.837L77.573 6.52c.07-.2.158-.392.263-.576.2-.338.502-.345.718 0 .111.179.202.37.27.568 1.422 3.582 2.839 7.18 4.25 10.792.17.437.355.767.912.767a.326.326 0 0 1 .34.307.329.329 0 0 1-.364.338h-2.055c-.177 0-.378-.084-.394-.307-.015-.223.178-.292.363-.338.549-.146.588-.222.387-.767-.201-.545-.333-.845-.503-1.267-.262-.652-.324-.69-1.05-.698h-2.48v.054zm0-.73h2.317c.48 0 .603-.184.425-.637-.798-2.046-1.607-4.114-2.426-6.201-.061-.162-.1-.4-.309-.415-.208-.015-.286.238-.355.407a825.08 825.08 0 0 0-2.434 6.194c-.185.484-.077.637.448.645.788.015 1.561.007 2.334.007zM41.074 5.568h1.097c.232 0 .495.061.487.36-.008.3-.247.308-.471.33-.603.062-.688.154-.688.768V17.32c0 .599.085.69.695.768.224 0 .456.076.464.337.008.261-.24.346-.456.346h-2.233c-.216 0-.456-.085-.44-.353.015-.269.24-.307.463-.33.58-.062.711-.177.711-.768V7.026c0-.583-.123-.69-.718-.767-.224 0-.456-.07-.456-.338 0-.269.232-.338.456-.345h1.097l-.008-.008zM83.785 7.026c.02-.26-.017-.522-.108-.767a.566.566 0 0 1 .208-.645.544.544 0 0 1 .603 0c.202.12.305.355.255.583a2.5 2.5 0 0 1-.44 1.121c-.078.13-.186.26-.364.2-.177-.062-.146-.215-.146-.346 0-.13-.008-.115-.008-.146z"/>
        </g>
    </g>
</svg>
