<svg xmlns="http://www.w3.org/2000/svg" width="15" height="14" viewBox="0 0 15 14">
    <g fill="none" fill-rule="evenodd">
        <path d="M-3 7.075L6.457-3.067 19.134 8.754 9.677 18.896z"/>
        <path fill="#43484F" fill-rule="nonzero" d="M10.29 11.103c-2.334 1.938-5.773 1.91-8.017-.184-2.44-2.275-2.545-6.128-.235-8.605 2.31-2.477 6.16-2.641 8.6-.366 2.245 2.093 2.514 5.521.744 7.985l2.717 2.534a.8.8 0 1 1-1.091 1.17l-2.718-2.534zm-.57-1.625c1.708-1.83 1.63-4.678-.173-6.36-1.803-1.682-4.65-1.56-6.357.27-1.707 1.832-1.63 4.68.174 6.361 1.803 1.682 4.65 1.56 6.357-.27z"/>
    </g>
</svg>
