<svg xmlns="http://www.w3.org/2000/svg" xmlns:xlink="http://www.w3.org/1999/xlink" width="21" height="32" viewBox="0 0 21 32">
    <defs>
        <path id="a" d="M0 10.947c.882.859 1.704 1.288 2.467 1.288.762 0 1.545-.43 2.347-1.288 1.008.859 1.968 1.288 2.88 1.288.913 0 1.758-.43 2.536-1.288.972.859 1.905 1.288 2.798 1.288s1.752-.43 2.576-1.288c.879.859 1.698 1.288 2.459 1.288.76 0 1.559-.43 2.397-1.288v15.555a5.053 5.053 0 0 1-5.053 5.052H5.053A5.053 5.053 0 0 1 0 26.502V10.947z"/>
    </defs>
    <g fill="none" fill-rule="evenodd">
        <path stroke="#43484F" stroke-width="1.263" d="M2.96 12.864l12.058-.473C13.738 4.715 11.671.979 9.031 1c-2.698.022-4.797 3.915-6.07 11.863zm10.21 3.213a2.185 2.185 0 0 1-.383.034v.632l.056.63.494-.045-.055-.629-.111-.622z"/>
        <path stroke="#43484F" stroke-width="1.263" d="M5.368 12.864l12.057-.473C16.145 4.715 14.078.979 11.438 1c-2.698.022-4.797 3.915-6.07 11.863zm10.21 3.213a2.185 2.185 0 0 1-.384.034v.632l.056.63.494-.045-.055-.629-.111-.622z"/>
        <g>
            <use fill="#FFF" xlink:href="#a"/>
            <path stroke="#43484F" stroke-width="1.263" d="M.632 12.267v14.235a4.421 4.421 0 0 0 4.42 4.42h10.355a4.421 4.421 0 0 0 4.421-4.42V12.294c-.586.378-1.174.572-1.765.572-.806 0-1.62-.362-2.45-1.057-.81.696-1.674 1.057-2.585 1.057-.914 0-1.833-.363-2.757-1.068-.782.704-1.646 1.068-2.577 1.068-.933 0-1.878-.365-2.835-1.076-.78.707-1.576 1.076-2.392 1.076-.606 0-1.217-.203-1.835-.599z"/>
        </g>
        <path fill="#43484F" d="M10.04 16.867c.389.164.892.288.892 2.316 0 .583-.286 1.387-.33 2.028-.01.123 3.128-2.93 4.14-1.54 1.065 1.458-2.22 2.231-3.638 2.776-.009.003.138.055.216.078.61.184 3.724 2.775 2.464 3.59-1.103.713-2.612-1.761-3.183-2.863-.156-.301-.169-.551-.172-.543-.042.106-.19-.105-.236 0a1.952 1.952 0 0 0-.097.313c-.1 1.006-.22 1.665-.358 1.975-.619 1.386-1.165 2.15-1.603 1.905-.698-.39-.46-1.38-.068-2.662.261-.855.727-1.528 1.4-2.02-.295.326-.969.401-2.022.227-1.17-.194-1.868-1.098-1.932-1.56-.073-.524.762-.851 2.162-.45.29.083.74.341 1.35.774-.091-1.566-.122-2.616-.093-3.149.028-.505.673-1.378 1.107-1.195z"/>
    </g>
</svg>
