<svg xmlns="http://www.w3.org/2000/svg" width="17" height="14" viewBox="0 0 17 14">
    <path fill="#43484F" fill-rule="evenodd" d="M16.531.259a6.906 6.906 0 0 1-2.216.856A3.458 3.458 0 0 0 11.769 0C9.845 0 8.283 1.583 8.283 3.534c0 .277.03.546.09.805C5.474 4.19 2.905 2.786 1.183.645a3.566 3.566 0 0 0-.472 1.779c0 1.225.616 2.307 1.552 2.941a3.455 3.455 0 0 1-1.58-.44v.043c0 1.713 1.202 3.142 2.798 3.465a3.438 3.438 0 0 1-1.575.062c.444 1.404 1.731 2.426 3.258 2.453A6.938 6.938 0 0 1 0 12.413 9.791 9.791 0 0 0 5.347 14c6.415 0 9.923-5.385 9.923-10.055 0-.154-.003-.308-.009-.458A7.106 7.106 0 0 0 17 1.657a6.894 6.894 0 0 1-2.003.557A3.534 3.534 0 0 0 16.531.259"/>
</svg>
